<svg xmlns="http://www.w3.org/2000/svg" xmlns:xlink="http://www.w3.org/1999/xlink" width="1080" zoomAndPan="magnify" viewBox="0 0 810 1439.999935" height="1920" preserveAspectRatio="xMidYMid meet" version="1.0"><defs><clipPath id="06fea2852d"><path d="M 58.316406 373.316406 L 751.683594 373.316406 L 751.683594 1066.683594 L 58.316406 1066.683594 Z M 58.316406 373.316406 " clip-rule="nonzero"/></clipPath><clipPath id="15645ec218"><path d="M 405 373.316406 C 213.53125 373.316406 58.316406 528.53125 58.316406 720 C 58.316406 911.46875 213.53125 1066.683594 405 1066.683594 C 596.46875 1066.683594 751.683594 911.46875 751.683594 720 C 751.683594 528.53125 596.46875 373.316406 405 373.316406 Z M 405 373.316406 " clip-rule="nonzero"/></clipPath><clipPath id="b7d967ffa1"><path d="M 221.300781 522.050781 L 588.800781 522.050781 L 588.800781 889.550781 L 221.300781 889.550781 Z M 221.300781 522.050781 " clip-rule="nonzero"/></clipPath></defs><g clip-path="url(#06fea2852d)"><g clip-path="url(#15645ec218)"><path fill="#1a421f" d="M 58.316406 373.316406 L 751.683594 373.316406 L 751.683594 1066.683594 L 58.316406 1066.683594 Z M 58.316406 373.316406 " fill-opacity="1" fill-rule="nonzero"/></g></g><g clip-path="url(#b7d967ffa1)"><path fill="#ffffff" d="M 240.082031 722.972656 L 240.082031 843.632812 L 230.917969 843.632812 C 230.316406 843.632812 229.722656 843.691406 229.132812 843.808594 C 228.542969 843.925781 227.96875 844.101562 227.414062 844.332031 C 226.859375 844.5625 226.328125 844.84375 225.828125 845.179688 C 225.328125 845.511719 224.867188 845.890625 224.441406 846.316406 C 224.015625 846.742188 223.636719 847.207031 223.300781 847.707031 C 222.96875 848.207031 222.683594 848.734375 222.457031 849.289062 C 222.226562 849.847656 222.050781 850.417969 221.933594 851.007812 C 221.816406 851.597656 221.757812 852.195312 221.757812 852.796875 L 221.757812 880.28125 C 221.757812 880.882812 221.816406 881.480469 221.933594 882.070312 C 222.050781 882.660156 222.226562 883.230469 222.457031 883.789062 C 222.683594 884.34375 222.96875 884.871094 223.300781 885.371094 C 223.636719 885.871094 224.015625 886.335938 224.441406 886.761719 C 224.867188 887.1875 225.328125 887.566406 225.828125 887.898438 C 226.328125 888.234375 226.859375 888.515625 227.414062 888.746094 C 227.96875 888.976562 228.542969 889.152344 229.132812 889.269531 C 229.722656 889.386719 230.316406 889.445312 230.917969 889.445312 L 579.074219 889.445312 C 579.675781 889.445312 580.269531 889.386719 580.863281 889.269531 C 581.453125 889.152344 582.023438 888.976562 582.582031 888.746094 C 583.136719 888.515625 583.664062 888.234375 584.164062 887.898438 C 584.664062 887.566406 585.128906 887.1875 585.550781 886.761719 C 585.976562 886.335938 586.359375 885.871094 586.691406 885.371094 C 587.027344 884.871094 587.308594 884.34375 587.539062 883.789062 C 587.769531 883.230469 587.941406 882.660156 588.058594 882.070312 C 588.175781 881.480469 588.234375 880.882812 588.234375 880.28125 L 588.234375 852.796875 C 588.234375 852.195312 588.175781 851.597656 588.058594 851.007812 C 587.941406 850.417969 587.769531 849.847656 587.539062 849.289062 C 587.308594 848.734375 587.027344 848.207031 586.691406 847.707031 C 586.359375 847.207031 585.976562 846.742188 585.550781 846.316406 C 585.128906 845.890625 584.664062 845.511719 584.164062 845.179688 C 583.664062 844.84375 583.136719 844.5625 582.582031 844.332031 C 582.023438 844.101562 581.453125 843.925781 580.863281 843.808594 C 580.269531 843.691406 579.675781 843.632812 579.074219 843.632812 L 569.914062 843.632812 L 569.914062 722.972656 C 571.242188 722.445312 572.523438 721.828125 573.761719 721.113281 C 575 720.398438 576.179688 719.597656 577.296875 718.707031 C 578.417969 717.816406 579.464844 716.851562 580.4375 715.808594 C 581.414062 714.761719 582.308594 713.652344 583.121094 712.476562 C 583.929688 711.300781 584.652344 710.070312 585.28125 708.789062 C 585.910156 707.503906 586.441406 706.183594 586.875 704.820312 C 587.308594 703.457031 587.640625 702.070312 587.867188 700.660156 C 588.09375 699.25 588.21875 697.832031 588.234375 696.402344 C 588.246094 694.4375 588.054688 692.492188 587.65625 690.566406 C 587.257812 688.644531 586.664062 686.78125 585.875 684.984375 C 585.085938 683.183594 584.117188 681.484375 582.972656 679.890625 C 581.828125 678.292969 580.527344 676.835938 579.074219 675.511719 L 411.136719 525.257812 C 410.71875 524.878906 410.269531 524.542969 409.789062 524.25 C 409.3125 523.957031 408.808594 523.707031 408.285156 523.507812 C 407.761719 523.304688 407.222656 523.152344 406.667969 523.050781 C 406.117188 522.945312 405.558594 522.894531 404.996094 522.894531 C 404.433594 522.894531 403.878906 522.945312 403.324219 523.050781 C 402.773438 523.152344 402.234375 523.304688 401.707031 523.507812 C 401.183594 523.707031 400.683594 523.957031 400.203125 524.25 C 399.722656 524.542969 399.277344 524.878906 398.859375 525.257812 L 230.917969 675.421875 C 229.464844 676.742188 228.167969 678.203125 227.019531 679.796875 C 225.875 681.394531 224.90625 683.09375 224.117188 684.890625 C 223.328125 686.691406 222.734375 688.550781 222.335938 690.476562 C 221.941406 692.402344 221.746094 694.34375 221.757812 696.308594 C 221.734375 698.167969 221.898438 700.007812 222.246094 701.832031 C 222.597656 703.65625 223.125 705.425781 223.835938 707.140625 C 224.542969 708.855469 225.417969 710.484375 226.457031 712.023438 C 227.496094 713.5625 228.675781 714.984375 230.003906 716.28125 C 232.859375 719.269531 236.21875 721.5 240.082031 722.972656 Z M 569.914062 861.957031 L 240.082031 861.957031 L 240.082031 871.121094 L 569.914062 871.121094 Z M 551.589844 723.15625 C 547.195312 721.988281 543.289062 719.910156 539.859375 716.925781 L 404.996094 590.488281 L 280.300781 707.394531 C 273.515625 713.359375 266.214844 718.613281 258.40625 723.15625 L 258.40625 843.632812 L 322.539062 843.632812 C 319.054688 841.042969 315.789062 838.203125 312.734375 835.113281 C 310.613281 832.992188 308.601562 830.773438 306.699219 828.453125 C 304.792969 826.132812 303.007812 823.726562 301.339844 821.234375 C 299.671875 818.738281 298.132812 816.167969 296.71875 813.523438 C 295.300781 810.875 294.019531 808.167969 292.871094 805.394531 C 291.722656 802.625 290.714844 799.800781 289.839844 796.929688 C 288.96875 794.058594 288.242188 791.152344 287.65625 788.210938 C 287.070312 785.269531 286.628906 782.304688 286.335938 779.316406 C 286.039062 776.332031 285.890625 773.339844 285.890625 770.339844 C 285.890625 769.136719 285.949219 767.941406 286.066406 766.746094 C 286.183594 765.550781 286.363281 764.367188 286.59375 763.1875 C 286.828125 762.011719 287.121094 760.847656 287.46875 759.699219 C 287.816406 758.550781 288.222656 757.421875 288.679688 756.3125 C 289.140625 755.207031 289.652344 754.121094 290.21875 753.0625 C 290.785156 752.003906 291.402344 750.976562 292.066406 749.976562 C 292.734375 748.980469 293.449219 748.015625 294.210938 747.089844 C 294.972656 746.160156 295.777344 745.273438 296.625 744.425781 C 297.472656 743.574219 298.363281 742.769531 299.289062 742.007812 C 300.21875 741.246094 301.179688 740.535156 302.179688 739.867188 C 303.175781 739.199219 304.203125 738.582031 305.261719 738.019531 C 306.320312 737.453125 307.40625 736.941406 308.515625 736.480469 C 309.625 736.019531 310.753906 735.617188 311.902344 735.269531 C 313.050781 734.921875 314.210938 734.628906 315.390625 734.394531 C 316.566406 734.160156 317.753906 733.984375 318.945312 733.867188 C 320.140625 733.75 321.339844 733.691406 322.539062 733.691406 C 328.707031 733.695312 334.816406 734.308594 340.863281 735.523438 L 340.863281 733.691406 C 340.863281 732.640625 340.890625 731.59375 340.941406 730.542969 C 340.992188 729.496094 341.070312 728.449219 341.171875 727.40625 C 341.273438 726.359375 341.402344 725.320312 341.558594 724.28125 C 341.710938 723.242188 341.890625 722.207031 342.09375 721.179688 C 342.300781 720.148438 342.53125 719.125 342.785156 718.109375 C 343.039062 717.089844 343.320312 716.078125 343.625 715.074219 C 343.929688 714.070312 344.257812 713.074219 344.613281 712.085938 C 344.964844 711.097656 345.34375 710.117188 345.746094 709.148438 C 346.148438 708.179688 346.570312 707.21875 347.019531 706.269531 C 347.46875 705.320312 347.941406 704.382812 348.4375 703.457031 C 348.929688 702.53125 349.449219 701.621094 349.988281 700.71875 C 350.527344 699.820312 351.089844 698.933594 351.671875 698.058594 C 352.253906 697.1875 352.859375 696.328125 353.484375 695.488281 C 354.109375 694.644531 354.753906 693.816406 355.421875 693.003906 C 356.085938 692.195312 356.773438 691.398438 357.476562 690.621094 C 358.183594 689.84375 358.90625 689.082031 359.648438 688.339844 C 360.390625 687.597656 361.148438 686.875 361.925781 686.171875 C 362.703125 685.464844 363.5 684.78125 364.3125 684.113281 C 365.121094 683.449219 365.949219 682.804688 366.792969 682.179688 C 367.636719 681.554688 368.492188 680.949219 369.367188 680.367188 C 370.238281 679.78125 371.125 679.222656 372.027344 678.679688 C 372.925781 678.140625 373.839844 677.625 374.765625 677.128906 C 375.691406 676.636719 376.628906 676.164062 377.578125 675.714844 C 378.523438 675.265625 379.484375 674.839844 380.453125 674.4375 C 381.421875 674.039062 382.402344 673.660156 383.390625 673.304688 C 384.378906 672.953125 385.375 672.625 386.378906 672.320312 C 387.382812 672.015625 388.394531 671.734375 389.414062 671.480469 C 390.433594 671.222656 391.457031 670.992188 392.484375 670.789062 C 393.515625 670.585938 394.546875 670.40625 395.585938 670.25 C 396.625 670.097656 397.667969 669.96875 398.710938 669.867188 C 399.753906 669.761719 400.800781 669.6875 401.851562 669.632812 C 402.898438 669.582031 403.949219 669.558594 404.996094 669.558594 C 406.046875 669.558594 407.09375 669.582031 408.144531 669.632812 C 409.191406 669.6875 410.238281 669.761719 411.28125 669.867188 C 412.328125 669.96875 413.367188 670.097656 414.40625 670.25 C 415.445312 670.40625 416.480469 670.585938 417.507812 670.789062 C 418.539062 670.996094 419.5625 671.222656 420.578125 671.480469 C 421.597656 671.734375 422.609375 672.015625 423.613281 672.320312 C 424.617188 672.625 425.613281 672.953125 426.601562 673.304688 C 427.589844 673.660156 428.570312 674.039062 429.539062 674.4375 C 430.507812 674.839844 431.46875 675.265625 432.417969 675.714844 C 433.367188 676.164062 434.304688 676.636719 435.230469 677.128906 C 436.15625 677.625 437.066406 678.140625 437.96875 678.679688 C 438.867188 679.222656 439.753906 679.78125 440.628906 680.367188 C 441.5 680.949219 442.359375 681.554688 443.203125 682.179688 C 444.042969 682.804688 444.871094 683.449219 445.683594 684.113281 C 446.496094 684.78125 447.289062 685.464844 448.066406 686.171875 C 448.84375 686.875 449.605469 687.597656 450.347656 688.339844 C 451.089844 689.082031 451.8125 689.84375 452.515625 690.621094 C 453.222656 691.398438 453.90625 692.195312 454.574219 693.003906 C 455.238281 693.816406 455.882812 694.644531 456.507812 695.488281 C 457.132812 696.328125 457.738281 697.1875 458.320312 698.058594 C 458.90625 698.933594 459.464844 699.820312 460.007812 700.71875 C 460.546875 701.621094 461.0625 702.53125 461.558594 703.457031 C 462.050781 704.382812 462.523438 705.320312 462.972656 706.269531 C 463.421875 707.21875 463.847656 708.179688 464.25 709.148438 C 464.648438 710.117188 465.027344 711.097656 465.382812 712.085938 C 465.734375 713.074219 466.0625 714.070312 466.367188 715.074219 C 466.671875 716.078125 466.953125 717.089844 467.207031 718.109375 C 467.464844 719.125 467.695312 720.148438 467.898438 721.179688 C 468.101562 722.207031 468.28125 723.242188 468.4375 724.28125 C 468.589844 725.320312 468.71875 726.359375 468.820312 727.40625 C 468.925781 728.449219 469 729.496094 469.054688 730.542969 C 469.105469 731.59375 469.128906 732.640625 469.128906 733.691406 L 469.128906 735.523438 C 475.179688 734.308594 481.285156 733.695312 487.453125 733.691406 C 488.65625 733.691406 489.851562 733.75 491.046875 733.867188 C 492.242188 733.984375 493.425781 734.160156 494.605469 734.394531 C 495.78125 734.628906 496.945312 734.921875 498.09375 735.269531 C 499.242188 735.617188 500.371094 736.019531 501.480469 736.480469 C 502.589844 736.941406 503.671875 737.453125 504.730469 738.019531 C 505.789062 738.582031 506.816406 739.199219 507.816406 739.867188 C 508.8125 740.535156 509.777344 741.246094 510.703125 742.007812 C 511.632812 742.769531 512.519531 743.574219 513.367188 744.425781 C 514.21875 745.273438 515.023438 746.160156 515.785156 747.089844 C 516.546875 748.015625 517.257812 748.980469 517.925781 749.976562 C 518.59375 750.976562 519.210938 752.003906 519.773438 753.0625 C 520.339844 754.121094 520.851562 755.207031 521.3125 756.3125 C 521.773438 757.421875 522.175781 758.550781 522.523438 759.699219 C 522.871094 760.847656 523.164062 762.011719 523.398438 763.1875 C 523.632812 764.367188 523.808594 765.550781 523.925781 766.746094 C 524.042969 767.941406 524.101562 769.136719 524.101562 770.339844 C 524.101562 773.339844 523.953125 776.332031 523.660156 779.316406 C 523.363281 782.304688 522.925781 785.269531 522.339844 788.210938 C 521.753906 791.152344 521.023438 794.058594 520.152344 796.929688 C 519.28125 799.800781 518.269531 802.625 517.121094 805.394531 C 515.972656 808.167969 514.691406 810.875 513.277344 813.523438 C 511.863281 816.167969 510.320312 818.738281 508.652344 821.234375 C 506.984375 823.726562 505.199219 826.132812 503.296875 828.453125 C 501.394531 830.773438 499.378906 832.992188 497.257812 835.113281 C 494.207031 838.203125 490.9375 841.042969 487.453125 843.632812 L 551.589844 843.632812 Z M 432.484375 843.632812 C 433.683594 843.632812 434.882812 843.605469 436.078125 843.546875 C 437.277344 843.488281 438.472656 843.398438 439.667969 843.28125 C 440.859375 843.164062 442.050781 843.015625 443.238281 842.839844 C 444.425781 842.664062 445.605469 842.460938 446.78125 842.226562 C 447.957031 841.992188 449.128906 841.730469 450.292969 841.4375 C 451.457031 841.144531 452.613281 840.828125 453.757812 840.476562 C 454.90625 840.128906 456.046875 839.753906 457.175781 839.351562 C 458.304688 838.945312 459.421875 838.515625 460.53125 838.054688 C 461.640625 837.597656 462.734375 837.109375 463.820312 836.597656 C 464.90625 836.085938 465.976562 835.546875 467.035156 834.980469 C 468.09375 834.414062 469.136719 833.824219 470.164062 833.207031 C 471.191406 832.589844 472.207031 831.949219 473.203125 831.28125 C 474.199219 830.613281 475.179688 829.925781 476.144531 829.210938 C 477.109375 828.496094 478.054688 827.757812 478.980469 826.996094 C 479.910156 826.234375 480.816406 825.453125 481.707031 824.648438 C 482.59375 823.839844 483.460938 823.015625 484.3125 822.167969 C 485.160156 821.316406 485.984375 820.449219 486.792969 819.5625 C 487.597656 818.671875 488.378906 817.765625 489.140625 816.835938 C 489.902344 815.910156 490.640625 814.964844 491.355469 814 C 492.070312 813.039062 492.757812 812.058594 493.425781 811.058594 C 494.09375 810.0625 494.734375 809.050781 495.351562 808.019531 C 495.96875 806.992188 496.558594 805.949219 497.125 804.890625 C 497.6875 803.832031 498.226562 802.761719 498.742188 801.675781 C 499.253906 800.59375 499.738281 799.496094 500.199219 798.386719 C 500.65625 797.28125 501.089844 796.160156 501.492188 795.03125 C 501.898438 793.902344 502.273438 792.761719 502.621094 791.613281 C 502.96875 790.46875 503.289062 789.3125 503.582031 788.148438 C 503.875 786.984375 504.136719 785.8125 504.371094 784.636719 C 504.605469 783.460938 504.808594 782.28125 504.984375 781.09375 C 505.160156 779.90625 505.308594 778.714844 505.425781 777.523438 C 505.542969 776.328125 505.632812 775.132812 505.691406 773.933594 C 505.75 772.738281 505.777344 771.539062 505.777344 770.339844 C 505.777344 769.738281 505.75 769.140625 505.691406 768.542969 C 505.632812 767.945312 505.542969 767.351562 505.425781 766.765625 C 505.308594 766.175781 505.164062 765.59375 504.988281 765.019531 C 504.816406 764.445312 504.613281 763.878906 504.382812 763.328125 C 504.152344 762.773438 503.898438 762.230469 503.613281 761.699219 C 503.332031 761.171875 503.023438 760.65625 502.691406 760.160156 C 502.355469 759.660156 502 759.179688 501.617188 758.714844 C 501.238281 758.25 500.835938 757.804688 500.410156 757.382812 C 499.988281 756.957031 499.542969 756.554688 499.078125 756.175781 C 498.613281 755.792969 498.132812 755.4375 497.632812 755.101562 C 497.136719 754.769531 496.621094 754.460938 496.09375 754.179688 C 495.5625 753.894531 495.019531 753.640625 494.464844 753.410156 C 493.914062 753.179688 493.347656 752.976562 492.773438 752.804688 C 492.199219 752.628906 491.617188 752.484375 491.027344 752.367188 C 490.441406 752.25 489.847656 752.160156 489.25 752.101562 C 488.652344 752.042969 488.054688 752.015625 487.453125 752.015625 C 486.253906 752.015625 485.054688 752.042969 483.859375 752.101562 C 482.660156 752.160156 481.464844 752.25 480.269531 752.367188 C 479.078125 752.484375 477.886719 752.632812 476.699219 752.808594 C 475.511719 752.984375 474.332031 753.1875 473.15625 753.421875 C 471.980469 753.65625 470.808594 753.917969 469.644531 754.210938 C 468.480469 754.503906 467.324219 754.824219 466.179688 755.171875 C 465.03125 755.519531 463.890625 755.894531 462.761719 756.300781 C 461.632812 756.703125 460.515625 757.136719 459.40625 757.59375 C 458.296875 758.054688 457.199219 758.539062 456.117188 759.050781 C 455.03125 759.566406 453.960938 760.105469 452.902344 760.667969 C 451.84375 761.234375 450.800781 761.824219 449.773438 762.441406 C 448.742188 763.058594 447.730469 763.699219 446.734375 764.367188 C 445.734375 765.035156 444.753906 765.722656 443.792969 766.4375 C 442.828125 767.152344 441.882812 767.890625 440.957031 768.652344 C 440.027344 769.414062 439.121094 770.195312 438.230469 771 C 437.34375 771.808594 436.476562 772.632812 435.625 773.484375 C 434.777344 774.332031 433.953125 775.199219 433.144531 776.089844 C 432.339844 776.976562 431.558594 777.886719 430.796875 778.8125 C 430.035156 779.738281 429.296875 780.683594 428.582031 781.648438 C 427.867188 782.613281 427.179688 783.59375 426.511719 784.589844 C 425.84375 785.585938 425.203125 786.601562 424.585938 787.628906 C 423.96875 788.65625 423.378906 789.699219 422.8125 790.757812 C 422.25 791.816406 421.707031 792.886719 421.195312 793.972656 C 420.683594 795.058594 420.195312 796.152344 419.738281 797.261719 C 419.277344 798.371094 418.847656 799.488281 418.445312 800.617188 C 418.039062 801.746094 417.664062 802.886719 417.316406 804.035156 C 416.964844 805.179688 416.648438 806.335938 416.355469 807.5 C 416.0625 808.664062 415.800781 809.835938 415.566406 811.011719 C 415.332031 812.1875 415.128906 813.367188 414.953125 814.554688 C 414.777344 815.742188 414.628906 816.933594 414.511719 818.125 C 414.394531 819.320312 414.304688 820.515625 414.246094 821.714844 C 414.1875 822.910156 414.160156 824.109375 414.160156 825.308594 L 414.160156 830.714844 L 471.789062 772.996094 C 472.214844 772.570312 472.679688 772.1875 473.183594 771.851562 C 473.683594 771.519531 474.214844 771.234375 474.773438 771.003906 C 475.328125 770.773438 475.90625 770.597656 476.496094 770.480469 C 477.089844 770.363281 477.6875 770.304688 478.292969 770.304688 C 478.894531 770.304688 479.492188 770.367188 480.085938 770.484375 C 480.675781 770.601562 481.25 770.777344 481.808594 771.007812 C 482.367188 771.238281 482.898438 771.523438 483.398438 771.855469 C 483.902344 772.191406 484.367188 772.574219 484.792969 773 C 485.21875 773.425781 485.601562 773.890625 485.9375 774.394531 C 486.273438 774.894531 486.554688 775.425781 486.785156 775.984375 C 487.015625 776.542969 487.191406 777.117188 487.308594 777.707031 C 487.425781 778.300781 487.488281 778.898438 487.488281 779.503906 C 487.488281 780.105469 487.429688 780.703125 487.3125 781.296875 C 487.195312 781.886719 487.019531 782.464844 486.789062 783.019531 C 486.558594 783.578125 486.273438 784.109375 485.941406 784.613281 C 485.605469 785.113281 485.222656 785.578125 484.796875 786.003906 L 427.078125 843.632812 Z M 395.835938 825.308594 C 395.835938 824.109375 395.804688 822.910156 395.746094 821.714844 C 395.6875 820.515625 395.597656 819.320312 395.480469 818.125 C 395.363281 816.933594 395.21875 815.742188 395.042969 814.554688 C 394.867188 813.367188 394.660156 812.1875 394.425781 811.011719 C 394.191406 809.835938 393.929688 808.664062 393.636719 807.5 C 393.347656 806.335938 393.027344 805.179688 392.679688 804.035156 C 392.332031 802.886719 391.953125 801.746094 391.550781 800.617188 C 391.144531 799.488281 390.714844 798.371094 390.253906 797.261719 C 389.796875 796.152344 389.3125 795.058594 388.796875 793.972656 C 388.285156 792.886719 387.746094 791.816406 387.179688 790.757812 C 386.613281 789.699219 386.023438 788.65625 385.40625 787.628906 C 384.789062 786.601562 384.148438 785.585938 383.480469 784.589844 C 382.816406 783.59375 382.125 782.613281 381.410156 781.648438 C 380.695312 780.683594 379.957031 779.738281 379.199219 778.8125 C 378.4375 777.886719 377.652344 776.976562 376.847656 776.089844 C 376.042969 775.199219 375.214844 774.332031 374.367188 773.484375 C 373.519531 772.632812 372.652344 771.808594 371.761719 771 C 370.871094 770.195312 369.964844 769.414062 369.039062 768.652344 C 368.109375 767.890625 367.164062 767.152344 366.203125 766.4375 C 365.238281 765.722656 364.257812 765.035156 363.261719 764.367188 C 362.261719 763.699219 361.25 763.058594 360.222656 762.441406 C 359.191406 761.824219 358.148438 761.234375 357.089844 760.667969 C 356.03125 760.105469 354.960938 759.566406 353.878906 759.050781 C 352.792969 758.539062 351.695312 758.054688 350.589844 757.59375 C 349.480469 757.136719 348.359375 756.703125 347.230469 756.300781 C 346.101562 755.894531 344.964844 755.519531 343.816406 755.171875 C 342.667969 754.824219 341.511719 754.503906 340.347656 754.210938 C 339.183594 753.917969 338.015625 753.65625 336.839844 753.421875 C 335.660156 753.1875 334.480469 752.984375 333.292969 752.808594 C 332.105469 752.632812 330.917969 752.484375 329.722656 752.367188 C 328.53125 752.25 327.332031 752.160156 326.136719 752.101562 C 324.9375 752.042969 323.738281 752.015625 322.539062 752.015625 C 321.9375 752.015625 321.339844 752.042969 320.742188 752.101562 C 320.144531 752.160156 319.554688 752.25 318.964844 752.367188 C 318.375 752.484375 317.792969 752.628906 317.21875 752.804688 C 316.644531 752.976562 316.082031 753.179688 315.527344 753.410156 C 314.972656 753.640625 314.429688 753.894531 313.902344 754.179688 C 313.371094 754.460938 312.859375 754.769531 312.359375 755.101562 C 311.859375 755.4375 311.378906 755.792969 310.914062 756.175781 C 310.449219 756.554688 310.007812 756.957031 309.582031 757.382812 C 309.15625 757.804688 308.753906 758.25 308.375 758.714844 C 307.992188 759.179688 307.636719 759.660156 307.304688 760.160156 C 306.96875 760.65625 306.660156 761.171875 306.378906 761.699219 C 306.097656 762.230469 305.839844 762.773438 305.609375 763.328125 C 305.378906 763.878906 305.179688 764.445312 305.003906 765.019531 C 304.832031 765.59375 304.683594 766.175781 304.566406 766.765625 C 304.449219 767.351562 304.363281 767.945312 304.304688 768.542969 C 304.246094 769.140625 304.214844 769.738281 304.214844 770.339844 C 304.214844 771.539062 304.246094 772.738281 304.304688 773.933594 C 304.363281 775.132812 304.449219 776.328125 304.566406 777.523438 C 304.6875 778.714844 304.832031 779.90625 305.007812 781.09375 C 305.183594 782.28125 305.390625 783.460938 305.625 784.636719 C 305.859375 785.8125 306.121094 786.984375 306.410156 788.148438 C 306.703125 789.3125 307.023438 790.46875 307.371094 791.613281 C 307.71875 792.761719 308.097656 793.902344 308.5 795.03125 C 308.902344 796.160156 309.335938 797.28125 309.792969 798.386719 C 310.253906 799.496094 310.738281 800.59375 311.253906 801.675781 C 311.765625 802.761719 312.304688 803.832031 312.871094 804.890625 C 313.433594 805.949219 314.027344 806.992188 314.644531 808.019531 C 315.261719 809.050781 315.902344 810.0625 316.566406 811.058594 C 317.234375 812.058594 317.925781 813.039062 318.640625 814 C 319.355469 814.964844 320.089844 815.910156 320.851562 816.835938 C 321.613281 817.765625 322.398438 818.671875 323.203125 819.5625 C 324.007812 820.449219 324.835938 821.316406 325.683594 822.167969 C 326.53125 823.015625 327.398438 823.839844 328.289062 824.648438 C 329.175781 825.453125 330.085938 826.234375 331.011719 826.996094 C 331.941406 827.757812 332.886719 828.496094 333.847656 829.210938 C 334.8125 829.925781 335.792969 830.617188 336.789062 831.28125 C 337.789062 831.949219 338.800781 832.589844 339.828125 833.207031 C 340.859375 833.824219 341.902344 834.414062 342.960938 834.980469 C 344.015625 835.546875 345.089844 836.085938 346.171875 836.597656 C 347.257812 837.109375 348.355469 837.597656 349.460938 838.054688 C 350.570312 838.515625 351.6875 838.945312 352.820312 839.351562 C 353.949219 839.753906 355.085938 840.128906 356.234375 840.476562 C 357.382812 840.828125 358.539062 841.144531 359.703125 841.4375 C 360.863281 841.730469 362.035156 841.992188 363.210938 842.226562 C 364.386719 842.460938 365.570312 842.664062 366.757812 842.839844 C 367.941406 843.015625 369.132812 843.164062 370.328125 843.28125 C 371.519531 843.398438 372.714844 843.488281 373.914062 843.546875 C 375.113281 843.605469 376.3125 843.632812 377.511719 843.632812 L 382.917969 843.632812 L 325.195312 786.003906 C 324.769531 785.578125 324.386719 785.113281 324.050781 784.613281 C 323.714844 784.109375 323.433594 783.578125 323.203125 783.019531 C 322.972656 782.464844 322.796875 781.886719 322.679688 781.296875 C 322.5625 780.703125 322.5 780.105469 322.5 779.5 C 322.5 778.898438 322.5625 778.296875 322.679688 777.707031 C 322.796875 777.113281 322.972656 776.539062 323.203125 775.980469 C 323.433594 775.421875 323.714844 774.890625 324.050781 774.390625 C 324.386719 773.886719 324.769531 773.421875 325.195312 772.996094 C 325.625 772.570312 326.089844 772.1875 326.589844 771.851562 C 327.09375 771.515625 327.621094 771.234375 328.179688 771 C 328.738281 770.769531 329.3125 770.597656 329.90625 770.476562 C 330.5 770.359375 331.097656 770.300781 331.703125 770.300781 C 332.304688 770.300781 332.902344 770.359375 333.496094 770.476562 C 334.089844 770.59375 334.664062 770.769531 335.222656 771 C 335.78125 771.234375 336.308594 771.515625 336.8125 771.851562 C 337.3125 772.1875 337.777344 772.570312 338.207031 772.996094 L 395.835938 830.714844 Z M 450.808594 741.296875 L 450.808594 733.691406 C 450.808594 732.191406 450.734375 730.695312 450.585938 729.199219 C 450.4375 727.707031 450.21875 726.226562 449.925781 724.753906 C 449.632812 723.28125 449.269531 721.828125 448.835938 720.394531 C 448.398438 718.957031 447.894531 717.546875 447.320312 716.160156 C 446.746094 714.773438 446.105469 713.417969 445.398438 712.097656 C 444.691406 710.773438 443.917969 709.488281 443.085938 708.238281 C 442.253906 706.992188 441.359375 705.789062 440.410156 704.628906 C 439.457031 703.46875 438.449219 702.359375 437.390625 701.296875 C 436.328125 700.238281 435.21875 699.230469 434.058594 698.28125 C 432.898438 697.328125 431.695312 696.433594 430.449219 695.601562 C 429.199219 694.769531 427.914062 693.996094 426.589844 693.289062 C 425.269531 692.582031 423.914062 691.941406 422.527344 691.367188 C 421.140625 690.792969 419.730469 690.289062 418.292969 689.855469 C 416.859375 689.417969 415.40625 689.054688 413.933594 688.761719 C 412.460938 688.46875 410.980469 688.25 409.488281 688.101562 C 407.992188 687.953125 406.496094 687.882812 404.996094 687.882812 C 403.496094 687.882812 402 687.953125 400.507812 688.101562 C 399.011719 688.25 397.53125 688.46875 396.058594 688.761719 C 394.589844 689.054688 393.132812 689.417969 391.699219 689.855469 C 390.261719 690.289062 388.851562 690.792969 387.464844 691.367188 C 386.078125 691.941406 384.726562 692.582031 383.402344 693.289062 C 382.078125 693.996094 380.792969 694.769531 379.546875 695.601562 C 378.296875 696.433594 377.09375 697.328125 375.933594 698.28125 C 374.777344 699.230469 373.664062 700.238281 372.605469 701.296875 C 371.542969 702.359375 370.539062 703.46875 369.585938 704.628906 C 368.632812 705.789062 367.742188 706.992188 366.90625 708.238281 C 366.074219 709.488281 365.304688 710.773438 364.597656 712.097656 C 363.890625 713.417969 363.25 714.773438 362.675781 716.160156 C 362.101562 717.546875 361.59375 718.957031 361.160156 720.394531 C 360.722656 721.828125 360.359375 723.28125 360.066406 724.753906 C 359.773438 726.226562 359.554688 727.707031 359.40625 729.199219 C 359.261719 730.695312 359.1875 732.191406 359.1875 733.691406 L 359.1875 741.296875 C 369.753906 745.964844 379.132812 752.378906 387.3125 760.535156 C 394.625 767.804688 400.519531 776.082031 404.996094 785.363281 C 409.476562 776.082031 415.371094 767.804688 422.679688 760.535156 C 430.863281 752.378906 440.238281 745.964844 450.808594 741.296875 Z M 395.835938 733.691406 L 414.160156 733.691406 C 414.761719 733.691406 415.355469 733.632812 415.945312 733.515625 C 416.535156 733.398438 417.109375 733.222656 417.664062 732.992188 C 418.222656 732.761719 418.75 732.480469 419.25 732.148438 C 419.75 731.8125 420.210938 731.433594 420.636719 731.007812 C 421.0625 730.582031 421.441406 730.117188 421.777344 729.617188 C 422.109375 729.117188 422.394531 728.589844 422.625 728.035156 C 422.855469 727.480469 423.027344 726.90625 423.144531 726.316406 C 423.261719 725.726562 423.320312 725.128906 423.320312 724.527344 C 423.320312 723.925781 423.261719 723.332031 423.144531 722.742188 C 423.027344 722.152344 422.855469 721.578125 422.625 721.023438 C 422.394531 720.46875 422.109375 719.9375 421.777344 719.4375 C 421.441406 718.9375 421.0625 718.476562 420.636719 718.050781 C 420.210938 717.625 419.75 717.246094 419.25 716.910156 C 418.75 716.578125 418.222656 716.292969 417.664062 716.0625 C 417.109375 715.835938 416.535156 715.660156 415.945312 715.542969 C 415.355469 715.425781 414.761719 715.367188 414.160156 715.367188 L 395.835938 715.367188 C 395.234375 715.367188 394.636719 715.425781 394.046875 715.542969 C 393.457031 715.660156 392.882812 715.835938 392.328125 716.0625 C 391.773438 716.292969 391.246094 716.578125 390.746094 716.910156 C 390.246094 717.246094 389.78125 717.625 389.355469 718.050781 C 388.929688 718.476562 388.550781 718.9375 388.21875 719.4375 C 387.882812 719.9375 387.601562 720.46875 387.371094 721.023438 C 387.140625 721.578125 386.964844 722.152344 386.847656 722.742188 C 386.730469 723.332031 386.671875 723.925781 386.671875 724.527344 C 386.671875 725.128906 386.730469 725.726562 386.847656 726.316406 C 386.964844 726.90625 387.140625 727.480469 387.371094 728.035156 C 387.601562 728.589844 387.882812 729.117188 388.21875 729.617188 C 388.550781 730.117188 388.929688 730.582031 389.355469 731.007812 C 389.78125 731.433594 390.246094 731.8125 390.746094 732.148438 C 391.246094 732.480469 391.773438 732.761719 392.328125 732.992188 C 392.882812 733.222656 393.457031 733.398438 394.046875 733.515625 C 394.636719 733.632812 395.234375 733.691406 395.835938 733.691406 Z M 560.75 706.203125 C 561.949219 706.164062 563.09375 705.898438 564.191406 705.40625 C 565.285156 704.914062 566.246094 704.234375 567.070312 703.363281 C 567.988281 702.4375 568.695312 701.371094 569.1875 700.167969 C 569.679688 698.960938 569.921875 697.703125 569.914062 696.402344 C 569.941406 695.007812 569.667969 693.675781 569.089844 692.40625 C 568.511719 691.136719 567.6875 690.054688 566.613281 689.164062 L 404.996094 544.40625 L 243.378906 689.070312 C 242.308594 689.964844 241.484375 691.046875 240.90625 692.3125 C 240.324219 693.582031 240.050781 694.914062 240.082031 696.308594 C 240.074219 697.613281 240.316406 698.867188 240.808594 700.074219 C 241.300781 701.28125 242.003906 702.347656 242.921875 703.273438 C 243.742188 704.160156 244.699219 704.855469 245.792969 705.363281 C 246.886719 705.871094 248.039062 706.152344 249.242188 706.203125 C 250.742188 706.25 252.207031 706.042969 253.640625 705.585938 C 255.070312 705.132812 256.382812 704.453125 257.582031 703.546875 L 398.765625 571.25 C 399.1875 570.859375 399.640625 570.511719 400.125 570.207031 C 400.609375 569.902344 401.117188 569.648438 401.652344 569.4375 C 402.183594 569.230469 402.730469 569.070312 403.292969 568.964844 C 403.855469 568.859375 404.425781 568.804688 404.996094 568.804688 C 405.570312 568.804688 406.136719 568.859375 406.699219 568.964844 C 407.261719 569.070312 407.808594 569.230469 408.34375 569.4375 C 408.875 569.648438 409.386719 569.902344 409.871094 570.207031 C 410.355469 570.511719 410.808594 570.859375 411.226562 571.25 L 552.414062 703.546875 C 553.609375 704.453125 554.925781 705.132812 556.355469 705.585938 C 557.785156 706.042969 559.25 706.25 560.75 706.203125 Z M 560.75 706.203125 " fill-opacity="1" fill-rule="evenodd"/></g></svg>