<?xml version="1.0" encoding="UTF-8"?>
<svg version="1.1" xmlns="http://www.w3.org/2000/svg" width="512" height="512">
<path d="M0 0 C1.01823853 0.00215515 2.03647705 0.0043103 3.08557129 0.00653076 C17.70747424 0.05622604 32.00633932 0.36188758 46.375 3.3125 C47.89383789 3.61051514 47.89383789 3.61051514 49.44335938 3.91455078 C82.96021771 10.61691835 116.43239122 23.30721197 144.375 43.3125 C145.30570312 43.96992187 146.23640625 44.62734375 147.1953125 45.3046875 C156.87601112 52.23488122 165.90710985 59.6783011 174.6171875 67.77734375 C176.76621096 69.75286249 178.93507074 71.64654364 181.1875 73.5 C184.2918954 76.12564527 186.89503031 79.05276759 189.51953125 82.15234375 C190.75466556 83.59030012 192.02350174 84.99998982 193.32421875 86.37890625 C205.11091538 98.90635645 215.07216651 113.27411717 223.375 128.3125 C223.83084473 129.12605957 224.28668945 129.93961914 224.75634766 130.77783203 C237.71530893 154.06980361 246.71303853 178.27134207 252.375 204.3125 C252.59945801 205.30540039 252.82391602 206.29830078 253.05517578 207.32128906 C259.94493801 239.12100514 259.40797287 276.60102036 252.375 308.3125 C252.18776367 309.19808594 252.00052734 310.08367187 251.80761719 310.99609375 C242.47417432 354.39096111 221.63482271 395.31288667 191.5390625 427.9609375 C190.09538883 429.52969481 188.67327663 431.11856886 187.2734375 432.7265625 C153.08711181 471.88544465 102.67521538 497.63764976 52.375 508.3125 C51.42318848 508.52422852 50.47137695 508.73595703 49.49072266 508.95410156 C17.66689378 515.76925039 -19.90354708 515.49781101 -51.625 508.3125 C-53.08317139 507.99104004 -53.08317139 507.99104004 -54.57080078 507.66308594 C-61.33504441 506.13218975 -67.98849207 504.32317627 -74.625 502.3125 C-75.54667969 502.0345459 -76.46835938 501.7565918 -77.41796875 501.47021484 C-113.17715613 490.4295034 -145.8837932 471.36325579 -173.08203125 445.703125 C-175.31582661 443.60315148 -177.59731158 441.60413078 -179.9375 439.625 C-183.19582529 436.79575459 -186.00907281 433.74604029 -188.79296875 430.453125 C-190.75859951 428.15639652 -192.81386063 425.96124011 -194.875 423.75 C-223.82290598 391.52035171 -242.39450344 350.18187971 -251.375 308.125 C-251.57383789 307.20017822 -251.77267578 306.27535645 -251.97753906 305.32250977 C-255.26941369 289.11581484 -256.0003085 273.18212105 -255.9375 256.6875 C-255.93534485 255.66959381 -255.9331897 254.65168762 -255.93096924 253.60293579 C-255.88129854 238.99386477 -255.63040191 224.66174147 -252.625 210.3125 C-252.42632324 209.33764648 -252.22764648 208.36279297 -252.02294922 207.35839844 C-241.77138226 158.35053302 -219.43217348 114.34635801 -184.625 78.3125 C-184.02606934 77.69165527 -183.42713867 77.07081055 -182.81005859 76.43115234 C-175.14623497 68.52999741 -167.40501606 60.98483045 -158.625 54.3125 C-158.08472168 53.89581055 -157.54444336 53.47912109 -156.98779297 53.04980469 C-125.1187531 28.55165293 -88.56685217 12.06060062 -49.1875 4 C-48.46860596 3.85264404 -47.74971191 3.70528809 -47.0090332 3.5534668 C-31.36274321 0.57960898 -15.88931915 -0.06049808 0 0 Z " fill="#DCB9CF" transform="translate(255.625,-0.3125)"/>
<path d="M0 0 C5.03298353 3.76425227 8.05752873 7.92871952 9.0859375 14.18359375 C9.34263285 17.12865255 9.50832223 20.04484874 9.5625 23 C13.14577753 24.00217064 13.14577753 24.00217064 16.5625 23 C16.71649026 20.98331986 16.78463742 18.95985889 16.8125 16.9375 C17.3332391 8.60567433 20.35530532 5.05447112 26.1875 -0.5 C31.87841193 -3.02929419 38.04951134 -3.30367067 43.94140625 -1.1171875 C46.04781466 0.08990043 47.76202099 1.3741633 49.5625 3 C50.08972656 3.47308594 50.61695313 3.94617188 51.16015625 4.43359375 C55.2025075 8.94886632 55.35007825 13.89305945 55.11328125 19.765625 C54.26247775 24.76183279 52.23459495 28.50924307 48.5625 32 C42.1610071 35.93799704 35.87871017 35.93115402 28.5625 35 C25.50742568 33.72113168 23.05720174 32.16930586 20.5625 30 C17.71682195 31.12538139 15.95780821 32.29374603 14.44824219 34.99072266 C13.3543447 37.57234171 12.37573039 40.17026406 11.4375 42.8125 C11.09203125 43.76229736 10.7465625 44.71209473 10.390625 45.69067383 C4.65611741 61.82581624 3.19098834 77.05516668 5.5625 94 C6.2225 93.67 6.8825 93.34 7.5625 93 C7.71687265 91.17127787 7.78469673 89.33501568 7.8125 87.5 C8.31755691 80.18538273 10.78414407 75.55666668 16.09375 70.55859375 C21.24019845 66.93842045 27.55273935 66.9775602 33.5625 68 C38.8407082 70.21622095 43.46948193 73.69936192 45.96484375 78.95703125 C47.51930596 84.27065043 47.66618774 89.38981877 45.4921875 94.53125 C42.33763713 99.70264405 38.44813742 104.11345178 32.5625 106 C24.5535935 106.68251667 19.68377442 104.94911549 13.5625 100 C12.0775 100.495 12.0775 100.495 10.5625 101 C11.15839192 105.74533443 12.57510915 109.82008615 14.4375 114.1875 C21.32558508 131.16273896 22.73968065 147.98590844 18.5625 166 C19.35914063 165.19175781 20.15578125 164.38351562 20.9765625 163.55078125 C22.04673795 162.47121829 23.11705821 161.39179887 24.1875 160.3125 C24.70957031 159.78205078 25.23164063 159.25160156 25.76953125 158.70507812 C26.29160156 158.17978516 26.81367188 157.65449219 27.3515625 157.11328125 C27.8772583 156.5812207 28.4029541 156.04916016 28.94458008 155.50097656 C30.52170594 154.03784547 32.15492971 152.90507397 33.92578125 151.69140625 C37.19699125 148.35234893 37.19304309 146.71952944 37.18945312 142.21142578 C37.15754883 140.93114502 37.15754883 140.93114502 37.125 139.625 C37.39550795 121.87130567 44.28074103 107.35705395 56.4375 94.5625 C66.32990587 85.25110097 78.47726321 78.51280865 92.25 77.8125 C95.5625 78 95.5625 78 97.5625 80 C98.04728568 83.22484322 97.94258266 86.49286471 97.9375 89.75 C97.93733887 90.69415771 97.93717773 91.63831543 97.93701172 92.61108398 C97.78484953 102.0235165 96.02943541 110.60940511 91.5625 119 C92.8 119.04125 94.0375 119.0825 95.3125 119.125 C101.73031736 119.79032397 106.99559251 122.91983291 112.5625 126 C113.18042278 133.51438238 109.21768757 137.49403677 104.5625 143 C94.99431364 153.39848352 81.46287787 158.38690367 67.5703125 159.31640625 C60.07977629 159.62230528 53.70846975 158.96483388 46.796875 155.77734375 C44.12686963 154.84844328 43.19535682 155.06899214 40.5625 156 C38.75413711 157.30877346 38.75413711 157.30877346 37.06640625 158.984375 C36.42509766 159.59023438 35.78378906 160.19609375 35.12304688 160.8203125 C34.46369141 161.45710937 33.80433594 162.09390625 33.125 162.75 C32.46951172 163.37132812 31.81402344 163.99265625 31.13867188 164.6328125 C27.55941299 168.03615997 24.04954312 171.50209615 20.5625 175 C21.37016312 175.00586624 22.17782623 175.01173248 23.00996399 175.01777649 C30.61748578 175.07565468 38.22467823 175.14770272 45.83190632 175.23571491 C49.74297848 175.28046315 53.65394541 175.31970911 57.56518555 175.34643555 C61.33902088 175.37242461 65.11245219 175.4127949 68.88603783 175.46318626 C70.32649909 175.47988494 71.76703028 175.49138053 73.20757484 175.49761391 C75.22353774 175.50722148 77.23937441 175.53696102 79.25512695 175.56762695 C80.97721123 175.58428154 80.97721123 175.58428154 82.73408508 175.60127258 C85.5625 176 85.5625 176 87.43344116 177.3241272 C89.32366255 180.12980083 88.93332896 182.90023787 88.92578125 186.22265625 C88.92652901 187.27458412 88.92652901 187.27458412 88.92729187 188.34776306 C88.9249542 189.82798094 88.91524363 191.30820301 88.89868164 192.78833008 C88.87504879 195.05781435 88.87812728 197.32612676 88.88476562 199.59570312 C88.84163434 210.72086566 88.84163434 210.72086566 86.5625 213 C83.9609375 213.1953125 83.9609375 213.1953125 80.9375 213.125 C79.93460938 213.10695313 78.93171875 213.08890625 77.8984375 213.0703125 C77.12757813 213.04710937 76.35671875 213.02390625 75.5625 213 C75.57249275 214.61825935 75.57249275 214.61825935 75.58268738 216.26921082 C75.64350365 226.4364771 75.68847516 236.60370648 75.71793652 246.7711134 C75.73359208 251.99828358 75.75482852 257.22530691 75.78881836 262.45239258 C75.82141546 267.49686947 75.83935384 272.54120511 75.84713173 277.58577919 C75.85267459 279.51031022 75.86349841 281.43483353 75.87969017 283.35930443 C75.90146904 286.05505451 75.90446673 288.75022101 75.90307617 291.44604492 C75.913862 292.24158279 75.92464783 293.03712067 75.9357605 293.85676575 C75.91033706 298.41193753 75.41709605 301.39039628 72.5625 305 C70.10234495 306.23007753 68.47604189 306.13669562 65.7240448 306.15390015 C64.70199448 306.16250061 63.67994415 306.17110107 62.62692261 306.17996216 C61.50117828 306.18422211 60.37543396 306.18848206 59.21557617 306.19287109 C58.03337997 306.20104858 56.85118378 306.20922607 55.63316345 306.21765137 C51.70727898 306.24253575 47.78140201 306.25917876 43.85546875 306.2734375 C42.50405686 306.27879725 41.15264504 306.28417476 39.80123329 306.28956985 C34.17977288 306.31119829 28.55831534 306.32993503 22.93682384 306.34119225 C14.88015044 306.35743205 6.82395928 306.39061007 -1.23253232 306.44759309 C-6.89714752 306.48629269 -12.56163374 306.5058249 -18.22637767 306.51111281 C-21.60983014 306.51476636 -24.99276827 306.5267862 -28.37607765 306.55921555 C-32.15189183 306.59071761 -35.92648233 306.59092555 -39.70239258 306.58349609 C-40.82206421 306.59990143 -41.94173584 306.61630676 -43.09533691 306.63320923 C-47.78453135 306.59535711 -50.60185345 306.52159429 -54.63546753 304.00389099 C-56.98528181 300.08687725 -57.10420787 296.7905751 -57.00512695 292.35424805 C-57.00585709 291.4952037 -57.00658722 290.63615936 -57.00733948 289.75108337 C-57.00386484 286.92064571 -56.96501033 284.09186776 -56.92578125 281.26171875 C-56.91645267 279.29589232 -56.90933677 277.33005425 -56.90434265 275.36421204 C-56.88527648 270.19688675 -56.83617863 265.03026718 -56.78082275 259.86322021 C-56.72962226 254.58794704 -56.70682688 249.31255954 -56.68164062 244.03710938 C-56.62805979 233.69109664 -56.54275131 223.34560707 -56.4375 213 C-57.20835937 213.02320313 -57.97921875 213.04640625 -58.7734375 213.0703125 C-59.77632812 213.08835937 -60.77921875 213.10640625 -61.8125 213.125 C-62.81023437 213.14820313 -63.80796875 213.17140625 -64.8359375 213.1953125 C-67.4375 213 -67.4375 213 -69.4375 211 C-69.83778418 206.45739722 -69.7665065 201.9003336 -69.75317383 197.34204102 C-69.75001677 195.07454253 -69.7734576 192.8083524 -69.79882812 190.54101562 C-69.80110141 189.10156415 -69.80180448 187.66210916 -69.80078125 186.22265625 C-69.80376221 184.91047119 -69.80674316 183.59828613 -69.80981445 182.24633789 C-69.4375 179 -69.4375 179 -68.30844116 177.3241272 C-65.58287801 175.39515563 -63.44890697 175.59972347 -60.13012695 175.56762695 C-58.82900467 175.54783279 -57.52788239 175.52803864 -56.18733215 175.50764465 C-54.76681665 175.50087483 -53.34629958 175.49442797 -51.92578125 175.48828125 C-50.47273739 175.47143671 -49.01970812 175.45328676 -47.56669617 175.43388367 C-43.74450236 175.38635258 -39.9223677 175.35656365 -36.09997559 175.33044434 C-32.19869299 175.30065427 -28.29761429 175.25411868 -24.39648438 175.20898438 C-16.74359068 175.12291604 -9.09068222 175.05558681 -1.4375 175 C-3.62065526 172.7873365 -5.80982229 170.58071089 -8 168.375 C-8.91362305 167.44880859 -8.91362305 167.44880859 -9.84570312 166.50390625 C-15.8031263 160.36030945 -15.8031263 160.36030945 -22.4375 155 C-25.08877469 154.83022506 -25.08877469 154.83022506 -27.4375 156 C-39.17966442 160.94406923 -53.57008089 160.45483862 -65.47265625 156.26171875 C-77.60926569 151.09686388 -87.71874743 143.11660701 -93.4375 131 C-93.625 128.1640625 -93.625 128.1640625 -93.4375 126 C-86.87407756 122.34124111 -80.88821559 120.06212329 -73.4375 119 C-73.72753906 118.05640625 -73.72753906 118.05640625 -74.0234375 117.09375 C-74.28382813 116.2378125 -74.54421875 115.381875 -74.8125 114.5 C-75.06773437 113.6646875 -75.32296875 112.829375 -75.5859375 111.96875 C-75.86695313 110.9890625 -76.14796875 110.009375 -76.4375 109 C-76.97503906 107.18628906 -76.97503906 107.18628906 -77.5234375 105.3359375 C-78.7664835 100.28494369 -78.73075534 95.30122243 -78.6875 90.125 C-78.69523438 89.17625 -78.70296875 88.2275 -78.7109375 87.25 C-78.70835937 86.34507812 -78.70578125 85.44015625 -78.703125 84.5078125 C-78.70086914 83.68941895 -78.69861328 82.87102539 -78.69628906 82.02783203 C-78.4375 80 -78.4375 80 -76.4375 78 C-63.13768844 77.29630627 -49.81378649 83.95404084 -39.7734375 92.18359375 C-29.3242018 102.03434382 -18.95645314 116.61961546 -18.33544922 131.43457031 C-18.338402 133.16358972 -18.34637269 134.89260718 -18.35913086 136.62158203 C-18.65539779 145.10588511 -18.65539779 145.10588511 -15 152.4375 C-12.05895292 155.29338897 -8.76175538 157.61198032 -5.4375 160 C-3.92546184 161.44554788 -2.44141878 162.92152508 -1 164.4375 C1.70409399 167.18675631 4.47057098 169.68105324 7.5625 172 C15.53204449 153.52514685 13.4074258 134.34599299 6.5625 116 C5.91187644 114.40134442 5.25515132 112.80516427 4.59375 111.2109375 C-0.02615965 100.06917456 -3.58010255 90.22816836 -3.4375 78 C-6.0555731 77.03037834 -6.0555731 77.03037834 -9.4375 77 C-11.25521498 78.04174366 -11.25521498 78.04174366 -13.0625 79.4375 C-18.25437496 82.98826506 -23.34785432 83.00675594 -29.4375 82 C-34.46651332 80.14677593 -38.36561073 77.07238541 -40.73828125 72.14453125 C-42.55400107 66.57564755 -43.62935861 60.92113711 -41.36328125 55.3671875 C-38.51311079 50.83384552 -35.4476662 47.05774683 -30.4375 45 C-24.46593969 44.31733065 -17.91283467 43.76767629 -12.375 46.5 C-7.22729834 50.88102269 -4.40449597 55.21945287 -3.625 62 C-3.54173763 63.33219796 -3.47147688 64.66563513 -3.4375 66 C-3.21835938 64.94683594 -2.99921875 63.89367187 -2.7734375 62.80859375 C-0.81166074 53.77134919 1.71557743 45.52397911 5.48828125 37.07421875 C6.74001993 34.16863202 6.74001993 34.16863202 6.35546875 31.64453125 C5.67279815 29.80039063 5.67279815 29.80039063 3.5625 29 C3.5625 29.66 3.5625 30.32 3.5625 31 C-2.94079236 35.95488942 -9.47226346 35.91058661 -17.4375 35 C-23.23005174 32.62091625 -26.90465957 27.64289279 -29.4375 22 C-30.72882518 16.01685998 -30.06245113 11.2947311 -26.875 6.0625 C-20.30813502 -2.43938088 -9.91551795 -5.53992007 0 0 Z " fill="#040303" transform="translate(246.4375,104)"/>
<path d="M0 0 C38.94 0 77.88 0 118 0 C118 28.38 118 56.76 118 86 C79.06 86 40.12 86 0 86 C0 57.62 0 29.24 0 0 Z " fill="#454545" transform="translate(197,317)"/>
<path d="M0 0 C47.52 0 95.04 0 144 0 C144 7.59 144 15.18 144 23 C96.48 23 48.96 23 0 23 C0 15.41 0 7.82 0 0 Z " fill="#5D5E5E" transform="translate(184,287)"/>
<path d="M0 0 C12.88551595 0.4295172 22.16898571 7.05800349 31 16 C31.56332031 16.54140625 32.12664062 17.0828125 32.70703125 17.640625 C42.92648658 28.31847279 46.29944786 42.18443004 46.0703125 56.47265625 C46.04710937 57.30667969 46.02390625 58.14070313 46 59 C34.55091602 58.77101832 24.1807855 52.07750003 16.1796875 44.3125 C3.60096202 30.96732888 -0.45590064 18.0334029 0 0 Z " fill="#6CBF5D" transform="translate(175,190)"/>
<path d="M0 0 C0.76140777 16.66637006 -2.66192843 29.58438217 -13.3359375 42.91796875 C-22.05621816 52.41076676 -33.04390222 58.93353589 -46 60 C-47.13563376 43.62163752 -42.45209667 29.78963385 -31.6796875 17.3125 C-23.83604005 9.05085253 -12.10870785 0 0 0 Z " fill="#6CBF5D" transform="translate(337,189)"/>
<path d="M0 0 C2.06083713 1.98884282 3.52841842 4.13243368 5.1484375 6.4921875 C11.55050969 15.16334857 21.47453016 19.60785252 31 24 C24.76932269 27.80848246 16.46163896 26.65992432 9.578125 25.34765625 C-1.54100059 22.24866551 -11.34218097 16.63080741 -18 7 C-18.33 6.01 -18.66 5.02 -19 4 C-13.06744898 0.89889379 -6.76872972 -1.77881293 0 0 Z " fill="#6CBC5D" transform="translate(180,230)"/>
<path d="M0 0 C4.62285004 0.95645173 9.256317 1.92553086 13.625 3.75 C14.12 4.74 14.12 4.74 14.625 5.75 C7.41814023 16.63094515 -2.08565372 23.06802286 -14.7578125 26.37109375 C-18.18817824 26.86772879 -21.53460817 26.92041227 -25 26.9375 C-26.96839844 26.95876953 -26.96839844 26.95876953 -28.9765625 26.98046875 C-32.375 26.75 -32.375 26.75 -35.375 24.75 C-34.48039062 24.3375 -33.58578125 23.925 -32.6640625 23.5 C-22.60170601 18.74390977 -14.33628047 13.47069204 -7.1875 4.75 C-3.81721195 0.84826932 -3.81721195 0.84826932 0 0 Z " fill="#6CBC5D" transform="translate(336.375,229.25)"/>
<path d="M0 0 C9.06187845 -0.46077348 9.06187845 -0.46077348 13 3 C13.8125 5.6875 13.8125 5.6875 14 8 C14.66 8 15.32 8 16 8 C16 10.64 16 13.28 16 16 C15.34 16.33 14.68 16.66 14 17 C13.7525 17.61875 13.505 18.2375 13.25 18.875 C11.37849389 22.05656039 9.45661997 22.82605359 6 24 C2.375 23.25 2.375 23.25 -1 22 C-1.763125 21.896875 -2.52625 21.79375 -3.3125 21.6875 C-5 21 -5 21 -6.1875 18.625 C-6.5896875 17.325625 -6.5896875 17.325625 -7 16 C-7.33 15.01 -7.66 14.02 -8 13 C-8.48713722 9.39518457 -7.98610574 7.97370016 -6.25 4.6875 C-5.5075 3.800625 -4.765 2.91375 -4 2 C-2.68 2 -1.36 2 0 2 C0 1.34 0 0.68 0 0 Z " fill="#F8D117" transform="translate(270,179)"/>
<path d="M0 0 C0.33 0.66 0.66 1.32 1 2 C1.639375 2.28875 2.27875 2.5775 2.9375 2.875 C5.58763784 4.32052973 6.09089021 5.12115234 7 8 C7.34669614 12.36837134 7.43071036 14.96629514 5.75 19 C4.88375 19.99 4.88375 19.99 4 21 C2.68 21 1.36 21 0 21 C-0.33 21.99 -0.66 22.98 -1 24 C-10.18143754 23.22191207 -10.18143754 23.22191207 -14 20 C-14 18.68 -14 17.36 -14 16 C-14.66 16 -15.32 16 -16 16 C-16 13.03 -16 10.06 -16 7 C-15.34 6.67 -14.68 6.34 -14 6 C-13.67 5.01 -13.34 4.02 -13 3 C-8.72300487 -0.49935965 -5.27904928 -0.26842623 0 0 Z " fill="#F7BC15" transform="translate(287,109)"/>
<path d="M0 0 C0 0.66 0 1.32 0 2 C0.763125 2.061875 1.52625 2.12375 2.3125 2.1875 C5 3 5 3 6.8125 5.125 C8.26421042 8.63966733 8.35562507 11.23037427 8 15 C7.34 15.66 6.68 16.32 6 17 C5.896875 17.66 5.79375 18.32 5.6875 19 C5 21 5 21 2.875 22.1875 C-5.77889447 24.63316583 -5.77889447 24.63316583 -10.375 22.25 C-13 20 -13 20 -14 17 C-14.66 16.67 -15.32 16.34 -16 16 C-16 13.36 -16 10.72 -16 8 C-15.34 7.67 -14.68 7.34 -14 7 C-13.896875 6.38125 -13.79375 5.7625 -13.6875 5.125 C-13 3 -13 3 -10.9375 1.25 C-7.04258936 -0.40740878 -4.21124039 -0.21413087 0 0 Z " fill="#F8D117" transform="translate(240,109)"/>
<path d="M0 0 C2.0625 1.25 2.0625 1.25 2.75 3.3125 C2.853125 3.951875 2.95625 4.59125 3.0625 5.25 C3.7225 5.58 4.3825 5.91 5.0625 6.25 C5.51183921 15.08700441 5.51183921 15.08700441 2.0625 19.25 C-1.88168038 22.42725642 -4.948466 22.77516147 -9.9375 22.25 C-13.375 20.75 -13.375 20.75 -15.9375 19.25 C-15.9375 17.93 -15.9375 16.61 -15.9375 15.25 C-16.5975 15.25 -17.2575 15.25 -17.9375 15.25 C-18.51313851 5.46414538 -18.51313851 5.46414538 -14.9375 1.25 C-10.69698847 -2.04817563 -4.91162363 -1.25403156 0 0 Z " fill="#F7BC15" transform="translate(229.9375,156.75)"/>
</svg>
