<svg xmlns="http://www.w3.org/2000/svg" xmlns:xlink="http://www.w3.org/1999/xlink" width="1080" zoomAndPan="magnify" viewBox="0 0 810 809.999993" height="1080" preserveAspectRatio="xMidYMid meet" version="1.0"><defs><clipPath id="6443a86efe"><path d="M 15 15 L 795 15 L 795 795.699219 L 15 795.699219 Z M 15 15 " clip-rule="nonzero"/></clipPath><clipPath id="77861a8bed"><path d="M 377.21875 334.375 L 429.433594 334.375 L 429.433594 353.121094 L 377.21875 353.121094 Z M 377.21875 334.375 " clip-rule="nonzero"/></clipPath></defs><g clip-path="url(#6443a86efe)"><path fill="#ffffff" d="M 54.152344 441.636719 L 54.152344 698.335938 L 34.664062 698.335938 C 34.023438 698.335938 33.386719 698.367188 32.753906 698.429688 C 32.117188 698.492188 31.488281 698.585938 30.859375 698.710938 C 30.234375 698.835938 29.617188 698.988281 29.003906 699.175781 C 28.394531 699.359375 27.792969 699.574219 27.203125 699.820312 C 26.613281 700.0625 26.039062 700.335938 25.476562 700.636719 C 24.910156 700.9375 24.363281 701.265625 23.835938 701.621094 C 23.304688 701.976562 22.792969 702.355469 22.296875 702.761719 C 21.804688 703.164062 21.332031 703.59375 20.878906 704.042969 C 20.429688 704.496094 20 704.96875 19.597656 705.460938 C 19.191406 705.953125 18.8125 706.46875 18.457031 706.996094 C 18.101562 707.527344 17.773438 708.074219 17.472656 708.636719 C 17.171875 709.203125 16.898438 709.777344 16.65625 710.367188 C 16.410156 710.957031 16.195312 711.558594 16.011719 712.167969 C 15.824219 712.78125 15.671875 713.398438 15.546875 714.023438 C 15.421875 714.648438 15.328125 715.28125 15.265625 715.917969 C 15.203125 716.550781 15.171875 717.1875 15.171875 717.828125 L 15.171875 776.300781 C 15.171875 776.9375 15.203125 777.574219 15.265625 778.210938 C 15.328125 778.84375 15.421875 779.476562 15.546875 780.101562 C 15.671875 780.730469 15.824219 781.347656 16.011719 781.957031 C 16.195312 782.570312 16.410156 783.167969 16.65625 783.757812 C 16.898438 784.347656 17.171875 784.925781 17.472656 785.488281 C 17.773438 786.050781 18.101562 786.597656 18.457031 787.128906 C 18.8125 787.660156 19.191406 788.171875 19.597656 788.664062 C 20 789.160156 20.429688 789.632812 20.878906 790.082031 C 21.332031 790.535156 21.804688 790.960938 22.296875 791.367188 C 22.792969 791.773438 23.304688 792.152344 23.835938 792.507812 C 24.363281 792.859375 24.910156 793.1875 25.476562 793.488281 C 26.039062 793.789062 26.613281 794.0625 27.203125 794.308594 C 27.792969 794.550781 28.394531 794.765625 29.003906 794.953125 C 29.617188 795.136719 30.234375 795.292969 30.859375 795.417969 C 31.488281 795.539062 32.117188 795.632812 32.753906 795.695312 C 33.386719 795.757812 34.023438 795.792969 34.664062 795.792969 L 775.324219 795.792969 C 775.964844 795.792969 776.601562 795.757812 777.234375 795.695312 C 777.871094 795.632812 778.5 795.539062 779.128906 795.417969 C 779.753906 795.292969 780.371094 795.136719 780.984375 794.953125 C 781.59375 794.765625 782.195312 794.550781 782.785156 794.308594 C 783.375 794.0625 783.949219 793.789062 784.511719 793.488281 C 785.078125 793.1875 785.625 792.859375 786.152344 792.507812 C 786.683594 792.152344 787.195312 791.773438 787.691406 791.367188 C 788.183594 790.960938 788.65625 790.535156 789.109375 790.082031 C 789.558594 789.632812 789.988281 789.160156 790.390625 788.664062 C 790.796875 788.171875 791.175781 787.660156 791.53125 787.128906 C 791.886719 786.597656 792.214844 786.050781 792.515625 785.488281 C 792.816406 784.925781 793.089844 784.347656 793.332031 783.757812 C 793.578125 783.167969 793.792969 782.570312 793.976562 781.957031 C 794.164062 781.347656 794.316406 780.730469 794.441406 780.101562 C 794.566406 779.476562 794.660156 778.84375 794.722656 778.210938 C 794.785156 777.574219 794.816406 776.9375 794.816406 776.300781 L 794.816406 717.828125 C 794.816406 717.1875 794.785156 716.550781 794.722656 715.917969 C 794.660156 715.28125 794.566406 714.648438 794.441406 714.023438 C 794.316406 713.398438 794.164062 712.78125 793.976562 712.167969 C 793.792969 711.558594 793.578125 710.957031 793.332031 710.367188 C 793.089844 709.777344 792.816406 709.203125 792.515625 708.636719 C 792.214844 708.074219 791.886719 707.527344 791.53125 706.996094 C 791.175781 706.46875 790.796875 705.953125 790.390625 705.460938 C 789.988281 704.96875 789.558594 704.496094 789.109375 704.042969 C 788.65625 703.59375 788.183594 703.164062 787.691406 702.761719 C 787.195312 702.355469 786.683594 701.976562 786.152344 701.621094 C 785.625 701.265625 785.078125 700.9375 784.511719 700.636719 C 783.949219 700.335938 783.375 700.0625 782.785156 699.820312 C 782.195312 699.574219 781.59375 699.359375 780.984375 699.175781 C 780.371094 698.988281 779.753906 698.835938 779.128906 698.710938 C 778.5 698.585938 777.871094 698.492188 777.234375 698.429688 C 776.601562 698.367188 775.964844 698.335938 775.324219 698.335938 L 755.835938 698.335938 L 755.835938 441.636719 C 757.246094 441.082031 758.636719 440.472656 760.003906 439.8125 C 761.371094 439.152344 762.710938 438.441406 764.027344 437.683594 C 765.339844 436.925781 766.625 436.117188 767.878906 435.265625 C 769.136719 434.410156 770.355469 433.511719 771.546875 432.566406 C 772.734375 431.621094 773.886719 430.636719 775 429.605469 C 776.117188 428.574219 777.191406 427.507812 778.230469 426.398438 C 779.265625 425.289062 780.261719 424.140625 781.210938 422.960938 C 782.164062 421.777344 783.070312 420.5625 783.933594 419.3125 C 784.792969 418.0625 785.609375 416.78125 786.375 415.472656 C 787.144531 414.164062 787.859375 412.824219 788.53125 411.460938 C 789.199219 410.101562 789.816406 408.714844 790.382812 407.304688 C 790.945312 405.898438 791.460938 404.46875 791.921875 403.023438 C 792.382812 401.574219 792.789062 400.113281 793.140625 398.636719 C 793.492188 397.160156 793.789062 395.671875 794.03125 394.175781 C 794.273438 392.675781 794.460938 391.171875 794.589844 389.660156 C 794.722656 388.144531 794.796875 386.632812 794.816406 385.113281 C 794.828125 383.027344 794.730469 380.949219 794.523438 378.875 C 794.320312 376.800781 794.003906 374.746094 793.582031 372.703125 C 793.160156 370.664062 792.632812 368.648438 792 366.664062 C 791.367188 364.675781 790.632812 362.730469 789.792969 360.820312 C 788.957031 358.914062 788.023438 357.054688 786.992188 355.242188 C 785.957031 353.433594 784.835938 351.679688 783.617188 349.988281 C 782.402344 348.292969 781.101562 346.667969 779.714844 345.113281 C 778.332031 343.554688 776.867188 342.078125 775.324219 340.671875 L 418.054688 21.019531 C 417.164062 20.21875 416.210938 19.503906 415.191406 18.878906 C 414.171875 18.253906 413.105469 17.726562 411.988281 17.296875 C 410.875 16.867188 409.726562 16.542969 408.550781 16.324219 C 407.375 16.105469 406.191406 15.996094 404.996094 15.996094 C 403.796875 15.996094 402.613281 16.105469 401.4375 16.324219 C 400.261719 16.542969 399.113281 16.867188 398 17.296875 C 396.882812 17.726562 395.816406 18.253906 394.796875 18.878906 C 393.777344 19.503906 392.824219 20.21875 391.933594 21.019531 L 34.664062 340.480469 C 33.121094 341.882812 31.65625 343.363281 30.273438 344.917969 C 28.886719 346.472656 27.585938 348.097656 26.371094 349.792969 C 25.152344 351.484375 24.03125 353.238281 22.996094 355.046875 C 21.964844 356.859375 21.03125 358.71875 20.195312 360.625 C 19.355469 362.535156 18.621094 364.484375 17.988281 366.46875 C 17.355469 368.453125 16.828125 370.46875 16.40625 372.507812 C 15.984375 374.550781 15.667969 376.605469 15.464844 378.679688 C 15.257812 380.753906 15.160156 382.835938 15.171875 384.917969 C 15.121094 388.867188 15.46875 392.785156 16.214844 396.664062 C 16.957031 400.542969 18.085938 404.308594 19.59375 407.960938 C 21.101562 411.613281 22.957031 415.074219 25.167969 418.347656 C 27.378906 421.625 29.890625 424.644531 32.714844 427.410156 C 35.714844 430.546875 39.023438 433.316406 42.640625 435.71875 C 46.257812 438.117188 50.097656 440.089844 54.152344 441.636719 Z M 755.835938 737.316406 L 54.152344 737.316406 L 54.152344 756.808594 L 755.835938 756.808594 Z M 716.851562 442.027344 C 712.242188 440.800781 707.832031 439.070312 703.617188 436.832031 C 699.40625 434.59375 695.5 431.90625 691.902344 428.773438 L 404.996094 159.796875 L 139.71875 408.503906 C 125.28125 421.191406 109.753906 432.367188 93.136719 442.027344 L 93.136719 698.335938 L 229.574219 698.335938 C 222.164062 692.820312 215.210938 686.777344 208.71875 680.207031 C 204.203125 675.695312 199.921875 670.972656 195.871094 666.039062 C 191.820312 661.105469 188.023438 655.984375 184.476562 650.679688 C 180.929688 645.371094 177.652344 639.902344 174.640625 634.273438 C 171.628906 628.648438 168.902344 622.882812 166.460938 616.988281 C 164.015625 611.089844 161.867188 605.089844 160.011719 598.980469 C 158.160156 592.871094 156.609375 586.6875 155.363281 580.429688 C 154.117188 574.167969 153.179688 567.863281 152.550781 561.507812 C 151.925781 555.15625 151.609375 548.789062 151.609375 542.40625 C 151.609375 541.128906 151.640625 539.855469 151.703125 538.582031 C 151.765625 537.308594 151.859375 536.035156 151.984375 534.765625 C 152.109375 533.496094 152.265625 532.230469 152.453125 530.96875 C 152.640625 529.703125 152.859375 528.449219 153.109375 527.195312 C 153.355469 525.945312 153.636719 524.699219 153.945312 523.460938 C 154.257812 522.226562 154.597656 520.996094 154.96875 519.773438 C 155.335938 518.554688 155.738281 517.34375 156.167969 516.140625 C 156.597656 514.941406 157.054688 513.75 157.542969 512.570312 C 158.03125 511.390625 158.550781 510.226562 159.09375 509.074219 C 159.640625 507.917969 160.214844 506.78125 160.816406 505.65625 C 161.417969 504.527344 162.046875 503.417969 162.703125 502.324219 C 163.359375 501.230469 164.039062 500.152344 164.75 499.09375 C 165.457031 498.03125 166.191406 496.988281 166.953125 495.964844 C 167.710938 494.9375 168.496094 493.933594 169.308594 492.945312 C 170.117188 491.960938 170.949219 490.996094 171.804688 490.050781 C 172.664062 489.101562 173.542969 488.179688 174.445312 487.277344 C 175.347656 486.375 176.269531 485.496094 177.214844 484.640625 C 178.160156 483.78125 179.128906 482.949219 180.113281 482.140625 C 181.101562 481.328125 182.105469 480.546875 183.128906 479.785156 C 184.15625 479.023438 185.199219 478.289062 186.257812 477.582031 C 187.320312 476.871094 188.398438 476.191406 189.492188 475.535156 C 190.585938 474.878906 191.695312 474.25 192.820312 473.648438 C 193.949219 473.046875 195.085938 472.472656 196.238281 471.925781 C 197.394531 471.382812 198.558594 470.863281 199.738281 470.375 C 200.917969 469.886719 202.105469 469.429688 203.308594 469 C 204.511719 468.570312 205.722656 468.167969 206.941406 467.800781 C 208.164062 467.429688 209.394531 467.089844 210.628906 466.777344 C 211.867188 466.46875 213.113281 466.1875 214.363281 465.941406 C 215.617188 465.691406 216.871094 465.472656 218.132812 465.285156 C 219.398438 465.097656 220.664062 464.941406 221.933594 464.816406 C 223.203125 464.691406 224.472656 464.597656 225.75 464.535156 C 227.023438 464.472656 228.296875 464.441406 229.574219 464.441406 C 242.695312 464.453125 255.691406 465.753906 268.554688 468.339844 L 268.554688 464.441406 C 268.554688 462.210938 268.609375 459.976562 268.722656 457.746094 C 268.832031 455.515625 268.996094 453.292969 269.214844 451.070312 C 269.433594 448.847656 269.707031 446.632812 270.03125 444.421875 C 270.359375 442.214844 270.742188 440.015625 271.179688 437.824219 C 271.613281 435.632812 272.101562 433.457031 272.644531 431.289062 C 273.1875 429.125 273.78125 426.972656 274.429688 424.835938 C 275.078125 422.699219 275.78125 420.578125 276.53125 418.476562 C 277.285156 416.375 278.085938 414.292969 278.941406 412.230469 C 279.796875 410.167969 280.699219 408.125 281.65625 406.105469 C 282.609375 404.089844 283.613281 402.09375 284.667969 400.125 C 285.71875 398.15625 286.820312 396.214844 287.96875 394.300781 C 289.117188 392.382812 290.308594 390.496094 291.550781 388.640625 C 292.789062 386.785156 294.074219 384.960938 295.40625 383.167969 C 296.738281 381.371094 298.109375 379.613281 299.527344 377.886719 C 300.941406 376.160156 302.402344 374.46875 303.902344 372.816406 C 305.398438 371.160156 306.9375 369.542969 308.519531 367.964844 C 310.097656 366.386719 311.714844 364.847656 313.367188 363.347656 C 315.023438 361.847656 316.710938 360.390625 318.4375 358.972656 C 320.164062 357.558594 321.925781 356.183594 323.71875 354.855469 C 325.511719 353.523438 327.335938 352.238281 329.191406 351 C 331.050781 349.757812 332.9375 348.5625 334.851562 347.414062 C 336.765625 346.265625 338.707031 345.167969 340.679688 344.113281 C 342.648438 343.0625 344.640625 342.058594 346.660156 341.105469 C 348.679688 340.148438 350.71875 339.246094 352.78125 338.390625 C 354.84375 337.535156 356.925781 336.730469 359.03125 335.980469 C 361.132812 335.226562 363.25 334.527344 365.386719 333.878906 C 367.523438 333.230469 369.675781 332.636719 371.84375 332.09375 C 374.007812 331.550781 376.1875 331.0625 378.375 330.625 C 380.566406 330.191406 382.765625 329.808594 384.972656 329.480469 C 387.183594 329.152344 389.398438 328.878906 391.621094 328.660156 C 393.84375 328.441406 396.070312 328.277344 398.300781 328.167969 C 400.53125 328.058594 402.761719 328.003906 404.996094 328.003906 C 407.226562 328.003906 409.457031 328.058594 411.6875 328.167969 C 413.917969 328.277344 416.144531 328.441406 418.367188 328.660156 C 420.589844 328.878906 422.804688 329.152344 425.015625 329.480469 C 427.222656 329.808594 429.421875 330.191406 431.613281 330.625 C 433.800781 331.0625 435.980469 331.550781 438.144531 332.09375 C 440.3125 332.636719 442.464844 333.230469 444.601562 333.878906 C 446.738281 334.527344 448.855469 335.226562 450.957031 335.980469 C 453.0625 336.730469 455.144531 337.535156 457.207031 338.390625 C 459.269531 339.246094 461.308594 340.148438 463.328125 341.105469 C 465.347656 342.058594 467.339844 343.0625 469.308594 344.113281 C 471.28125 345.167969 473.222656 346.265625 475.136719 347.414062 C 477.050781 348.5625 478.9375 349.757812 480.792969 351 C 482.652344 352.238281 484.476562 353.523438 486.269531 354.855469 C 488.0625 356.183594 489.824219 357.558594 491.550781 358.972656 C 493.277344 360.390625 494.964844 361.847656 496.621094 363.347656 C 498.273438 364.847656 499.890625 366.386719 501.46875 367.964844 C 503.050781 369.542969 504.589844 371.160156 506.089844 372.816406 C 507.585938 374.46875 509.046875 376.160156 510.460938 377.886719 C 511.878906 379.613281 513.25 381.371094 514.582031 383.167969 C 515.914062 384.960938 517.199219 386.785156 518.4375 388.640625 C 519.679688 390.496094 520.871094 392.382812 522.019531 394.300781 C 523.167969 396.214844 524.269531 398.15625 525.320312 400.125 C 526.375 402.09375 527.378906 404.089844 528.332031 406.105469 C 529.285156 408.125 530.191406 410.167969 531.046875 412.230469 C 531.902344 414.292969 532.703125 416.375 533.457031 418.476562 C 534.207031 420.578125 534.910156 422.699219 535.558594 424.835938 C 536.207031 426.972656 536.800781 429.125 537.34375 431.289062 C 537.886719 433.457031 538.375 435.632812 538.808594 437.824219 C 539.246094 440.015625 539.628906 442.214844 539.957031 444.421875 C 540.28125 446.632812 540.554688 448.847656 540.773438 451.070312 C 540.992188 453.292969 541.15625 455.515625 541.269531 457.746094 C 541.378906 459.976562 541.433594 462.210938 541.433594 464.441406 L 541.433594 468.339844 C 554.296875 465.753906 567.292969 464.453125 580.414062 464.441406 C 581.691406 464.441406 582.964844 464.472656 584.238281 464.535156 C 585.515625 464.597656 586.785156 464.691406 588.054688 464.816406 C 589.324219 464.941406 590.59375 465.097656 591.855469 465.285156 C 593.117188 465.472656 594.371094 465.691406 595.625 465.941406 C 596.875 466.1875 598.121094 466.46875 599.359375 466.777344 C 600.597656 467.089844 601.824219 467.429688 603.046875 467.800781 C 604.265625 468.167969 605.476562 468.570312 606.679688 469 C 607.882812 469.429688 609.070312 469.886719 610.25 470.375 C 611.429688 470.863281 612.59375 471.382812 613.75 471.925781 C 614.902344 472.472656 616.042969 473.046875 617.167969 473.648438 C 618.292969 474.25 619.402344 474.878906 620.496094 475.535156 C 621.589844 476.191406 622.667969 476.871094 623.730469 477.582031 C 624.789062 478.289062 625.832031 479.023438 626.859375 479.785156 C 627.882812 480.546875 628.886719 481.328125 629.875 482.140625 C 630.859375 482.949219 631.828125 483.78125 632.773438 484.640625 C 633.71875 485.496094 634.640625 486.375 635.542969 487.277344 C 636.445312 488.179688 637.324219 489.101562 638.183594 490.050781 C 639.039062 490.996094 639.871094 491.960938 640.679688 492.945312 C 641.492188 493.933594 642.277344 494.9375 643.035156 495.964844 C 643.796875 496.988281 644.53125 498.03125 645.238281 499.09375 C 645.949219 500.152344 646.628906 501.230469 647.285156 502.324219 C 647.941406 503.417969 648.570312 504.527344 649.171875 505.65625 C 649.773438 506.78125 650.347656 507.917969 650.894531 509.074219 C 651.4375 510.226562 651.957031 511.390625 652.445312 512.570312 C 652.933594 513.75 653.390625 514.941406 653.820312 516.140625 C 654.25 517.34375 654.652344 518.554688 655.023438 519.773438 C 655.390625 520.996094 655.730469 522.226562 656.042969 523.460938 C 656.351562 524.699219 656.632812 525.945312 656.878906 527.195312 C 657.128906 528.449219 657.347656 529.703125 657.535156 530.96875 C 657.722656 532.230469 657.878906 533.496094 658.003906 534.765625 C 658.128906 536.035156 658.222656 537.308594 658.285156 538.582031 C 658.347656 539.855469 658.378906 541.128906 658.378906 542.40625 C 658.378906 548.789062 658.0625 555.15625 657.4375 561.507812 C 656.808594 567.863281 655.871094 574.167969 654.625 580.429688 C 653.378906 586.6875 651.828125 592.871094 649.976562 598.980469 C 648.121094 605.089844 645.972656 611.089844 643.527344 616.988281 C 641.085938 622.882812 638.359375 628.648438 635.347656 634.277344 C 632.335938 639.90625 629.058594 645.371094 625.511719 650.679688 C 621.964844 655.984375 618.167969 661.105469 614.117188 666.039062 C 610.066406 670.972656 605.785156 675.695312 601.269531 680.207031 C 594.777344 686.777344 587.824219 692.820312 580.414062 698.335938 L 716.851562 698.335938 Z M 463.46875 698.335938 C 466.019531 698.335938 468.570312 698.273438 471.117188 698.148438 C 473.667969 698.023438 476.210938 697.835938 478.75 697.585938 C 481.289062 697.335938 483.824219 697.023438 486.347656 696.648438 C 488.871094 696.273438 491.386719 695.835938 493.886719 695.339844 C 496.390625 694.839844 498.878906 694.28125 501.355469 693.664062 C 503.832031 693.042969 506.289062 692.363281 508.730469 691.621094 C 511.171875 690.878906 513.59375 690.082031 516 689.21875 C 518.402344 688.359375 520.78125 687.441406 523.140625 686.464844 C 525.496094 685.488281 527.828125 684.457031 530.136719 683.363281 C 532.441406 682.273438 534.722656 681.125 536.972656 679.921875 C 539.222656 678.71875 541.441406 677.464844 543.632812 676.152344 C 545.820312 674.839844 547.976562 673.472656 550.097656 672.054688 C 552.21875 670.640625 554.304688 669.167969 556.355469 667.648438 C 558.402344 666.128906 560.414062 664.558594 562.386719 662.941406 C 564.359375 661.324219 566.292969 659.65625 568.183594 657.941406 C 570.074219 656.230469 571.921875 654.46875 573.726562 652.664062 C 575.53125 650.859375 577.289062 649.011719 579.003906 647.121094 C 580.71875 645.230469 582.382812 643.300781 584.003906 641.328125 C 585.621094 639.355469 587.191406 637.34375 588.710938 635.292969 C 590.230469 633.242188 591.699219 631.15625 593.117188 629.035156 C 594.535156 626.914062 595.898438 624.757812 597.210938 622.570312 C 598.523438 620.382812 599.78125 618.160156 600.984375 615.910156 C 602.1875 613.660156 603.335938 611.382812 604.425781 609.074219 C 605.515625 606.769531 606.550781 604.433594 607.527344 602.078125 C 608.503906 599.71875 609.421875 597.339844 610.28125 594.9375 C 611.140625 592.535156 611.941406 590.113281 612.683594 587.671875 C 613.421875 585.226562 614.101562 582.769531 614.722656 580.292969 C 615.34375 577.820312 615.902344 575.328125 616.398438 572.828125 C 616.898438 570.324219 617.335938 567.808594 617.707031 565.285156 C 618.082031 562.761719 618.394531 560.230469 618.644531 557.691406 C 618.894531 555.152344 619.082031 552.605469 619.207031 550.058594 C 619.332031 547.507812 619.394531 544.957031 619.394531 542.40625 C 619.394531 541.128906 619.332031 539.855469 619.207031 538.585938 C 619.082031 537.316406 618.898438 536.054688 618.648438 534.800781 C 618.398438 533.550781 618.089844 532.3125 617.71875 531.089844 C 617.347656 529.867188 616.917969 528.667969 616.429688 527.488281 C 615.941406 526.308594 615.394531 525.15625 614.792969 524.03125 C 614.191406 522.90625 613.535156 521.8125 612.828125 520.75 C 612.117188 519.6875 611.359375 518.664062 610.546875 517.675781 C 609.738281 516.691406 608.882812 515.746094 607.980469 514.84375 C 607.074219 513.9375 606.132812 513.082031 605.144531 512.273438 C 604.15625 511.464844 603.132812 510.703125 602.070312 509.992188 C 601.011719 509.285156 599.917969 508.628906 598.789062 508.027344 C 597.664062 507.425781 596.511719 506.878906 595.332031 506.390625 C 594.152344 505.902344 592.953125 505.472656 591.730469 505.101562 C 590.507812 504.730469 589.269531 504.421875 588.019531 504.171875 C 586.765625 503.925781 585.503906 503.738281 584.234375 503.613281 C 582.964844 503.488281 581.691406 503.425781 580.414062 503.425781 C 577.863281 503.425781 575.3125 503.488281 572.761719 503.613281 C 570.214844 503.738281 567.671875 503.925781 565.128906 504.175781 C 562.589844 504.425781 560.058594 504.738281 557.535156 505.113281 C 555.011719 505.488281 552.496094 505.921875 549.992188 506.421875 C 547.492188 506.917969 545.003906 507.476562 542.527344 508.097656 C 540.050781 508.71875 537.59375 509.398438 535.152344 510.136719 C 532.707031 510.878906 530.285156 511.679688 527.882812 512.539062 C 525.480469 513.398438 523.101562 514.316406 520.742188 515.292969 C 518.386719 516.269531 516.054688 517.304688 513.746094 518.394531 C 511.4375 519.484375 509.160156 520.632812 506.910156 521.835938 C 504.660156 523.039062 502.441406 524.296875 500.25 525.609375 C 498.0625 526.921875 495.90625 528.285156 493.785156 529.703125 C 491.664062 531.121094 489.578125 532.589844 487.527344 534.109375 C 485.476562 535.628906 483.464844 537.199219 481.492188 538.820312 C 479.519531 540.4375 477.589844 542.105469 475.699219 543.816406 C 473.808594 545.53125 471.960938 547.289062 470.15625 549.09375 C 468.351562 550.898438 466.59375 552.746094 464.878906 554.636719 C 463.164062 556.527344 461.5 558.460938 459.878906 560.433594 C 458.261719 562.40625 456.691406 564.417969 455.171875 566.464844 C 453.652344 568.515625 452.183594 570.601562 450.765625 572.722656 C 449.347656 574.84375 447.980469 577 446.667969 579.191406 C 445.359375 581.378906 444.101562 583.597656 442.898438 585.847656 C 441.695312 588.097656 440.546875 590.378906 439.457031 592.683594 C 438.363281 594.992188 437.332031 597.324219 436.355469 599.683594 C 435.378906 602.039062 434.460938 604.417969 433.601562 606.824219 C 432.742188 609.226562 431.941406 611.648438 431.199219 614.089844 C 430.457031 616.53125 429.777344 618.988281 429.160156 621.464844 C 428.539062 623.941406 427.980469 626.429688 427.480469 628.933594 C 426.984375 631.4375 426.546875 633.949219 426.171875 636.472656 C 425.796875 638.996094 425.484375 641.53125 425.234375 644.070312 C 424.984375 646.609375 424.796875 649.152344 424.671875 651.703125 C 424.546875 654.25 424.484375 656.800781 424.484375 659.351562 L 424.484375 670.851562 L 547.085938 548.058594 C 547.539062 547.605469 548.011719 547.175781 548.507812 546.769531 C 549.003906 546.363281 549.515625 545.984375 550.050781 545.628906 C 550.582031 545.273438 551.132812 544.945312 551.699219 544.644531 C 552.261719 544.339844 552.839844 544.066406 553.433594 543.824219 C 554.027344 543.578125 554.628906 543.363281 555.242188 543.175781 C 555.855469 542.992188 556.476562 542.835938 557.105469 542.710938 C 557.730469 542.585938 558.363281 542.492188 559.003906 542.429688 C 559.640625 542.367188 560.28125 542.335938 560.921875 542.335938 C 561.5625 542.335938 562.199219 542.371094 562.835938 542.433594 C 563.476562 542.496094 564.109375 542.589844 564.734375 542.714844 C 565.363281 542.839844 565.984375 542.996094 566.597656 543.179688 C 567.210938 543.367188 567.8125 543.582031 568.40625 543.828125 C 568.996094 544.074219 569.574219 544.347656 570.140625 544.648438 C 570.707031 544.953125 571.253906 545.28125 571.785156 545.636719 C 572.320312 545.992188 572.832031 546.375 573.328125 546.78125 C 573.824219 547.1875 574.296875 547.617188 574.75 548.070312 C 575.203125 548.523438 575.632812 548.996094 576.039062 549.492188 C 576.445312 549.988281 576.828125 550.5 577.183594 551.035156 C 577.539062 551.566406 577.867188 552.117188 578.171875 552.679688 C 578.472656 553.246094 578.746094 553.824219 578.992188 554.414062 C 579.238281 555.007812 579.453125 555.609375 579.640625 556.222656 C 579.824219 556.835938 579.980469 557.457031 580.105469 558.085938 C 580.230469 558.714844 580.324219 559.347656 580.386719 559.984375 C 580.453125 560.621094 580.484375 561.261719 580.484375 561.902344 C 580.484375 562.542969 580.453125 563.179688 580.390625 563.816406 C 580.328125 564.457031 580.234375 565.089844 580.109375 565.71875 C 579.984375 566.34375 579.828125 566.964844 579.644531 567.578125 C 579.457031 568.191406 579.242188 568.796875 578.996094 569.386719 C 578.753906 569.980469 578.480469 570.558594 578.179688 571.125 C 577.875 571.6875 577.546875 572.238281 577.191406 572.769531 C 576.835938 573.304688 576.457031 573.816406 576.050781 574.3125 C 575.644531 574.808594 575.214844 575.28125 574.761719 575.738281 L 451.96875 698.335938 Z M 385.503906 659.351562 C 385.503906 656.800781 385.441406 654.25 385.316406 651.703125 C 385.191406 649.152344 385.003906 646.609375 384.753906 644.070312 C 384.503906 641.53125 384.191406 638.996094 383.816406 636.472656 C 383.441406 633.949219 383.003906 631.4375 382.507812 628.933594 C 382.007812 626.429688 381.449219 623.941406 380.828125 621.464844 C 380.210938 618.988281 379.53125 616.53125 378.789062 614.089844 C 378.046875 611.648438 377.246094 609.226562 376.386719 606.824219 C 375.527344 604.417969 374.609375 602.039062 373.632812 599.683594 C 372.65625 597.324219 371.625 594.992188 370.53125 592.683594 C 369.441406 590.378906 368.292969 588.097656 367.089844 585.847656 C 365.886719 583.597656 364.628906 581.378906 363.320312 579.191406 C 362.007812 577 360.640625 574.84375 359.222656 572.722656 C 357.804688 570.601562 356.335938 568.515625 354.816406 566.464844 C 353.296875 564.417969 351.726562 562.40625 350.109375 560.433594 C 348.488281 558.460938 346.824219 556.527344 345.109375 554.636719 C 343.394531 552.746094 341.636719 550.898438 339.832031 549.09375 C 338.027344 547.289062 336.179688 545.53125 334.289062 543.816406 C 332.398438 542.105469 330.46875 540.4375 328.496094 538.820312 C 326.523438 537.199219 324.511719 535.628906 322.460938 534.109375 C 320.410156 532.589844 318.324219 531.121094 316.203125 529.703125 C 314.082031 528.285156 311.925781 526.921875 309.738281 525.609375 C 307.546875 524.296875 305.328125 523.039062 303.078125 521.835938 C 300.828125 520.632812 298.550781 519.484375 296.242188 518.394531 C 293.933594 517.304688 291.601562 516.269531 289.246094 515.292969 C 286.886719 514.316406 284.507812 513.398438 282.105469 512.539062 C 279.703125 511.679688 277.28125 510.878906 274.839844 510.136719 C 272.394531 509.398438 269.9375 508.71875 267.460938 508.097656 C 264.988281 507.476562 262.496094 506.917969 259.996094 506.421875 C 257.492188 505.921875 254.976562 505.488281 252.453125 505.113281 C 249.929688 504.738281 247.398438 504.425781 244.859375 504.175781 C 242.316406 503.925781 239.773438 503.738281 237.226562 503.613281 C 234.675781 503.488281 232.125 503.425781 229.574219 503.425781 C 228.296875 503.425781 227.023438 503.488281 225.753906 503.613281 C 224.484375 503.738281 223.222656 503.925781 221.96875 504.171875 C 220.71875 504.421875 219.480469 504.730469 218.257812 505.101562 C 217.035156 505.472656 215.835938 505.902344 214.65625 506.390625 C 213.476562 506.878906 212.324219 507.425781 211.199219 508.027344 C 210.070312 508.628906 208.976562 509.285156 207.917969 509.992188 C 206.855469 510.703125 205.832031 511.464844 204.84375 512.273438 C 203.855469 513.082031 202.914062 513.9375 202.007812 514.84375 C 201.105469 515.746094 200.25 516.691406 199.441406 517.675781 C 198.628906 518.664062 197.871094 519.6875 197.160156 520.75 C 196.453125 521.8125 195.796875 522.90625 195.195312 524.03125 C 194.59375 525.15625 194.046875 526.308594 193.558594 527.488281 C 193.070312 528.667969 192.640625 529.867188 192.269531 531.089844 C 191.898438 532.3125 191.589844 533.550781 191.339844 534.800781 C 191.09375 536.054688 190.90625 537.316406 190.78125 538.585938 C 190.65625 539.855469 190.59375 541.128906 190.59375 542.40625 C 190.59375 544.957031 190.65625 547.507812 190.78125 550.058594 C 190.90625 552.605469 191.09375 555.152344 191.34375 557.691406 C 191.59375 560.230469 191.90625 562.761719 192.28125 565.285156 C 192.652344 567.808594 193.089844 570.324219 193.589844 572.828125 C 194.085938 575.328125 194.644531 577.820312 195.265625 580.292969 C 195.886719 582.769531 196.566406 585.226562 197.304688 587.671875 C 198.046875 590.113281 198.847656 592.535156 199.707031 594.9375 C 200.566406 597.339844 201.484375 599.71875 202.460938 602.078125 C 203.4375 604.433594 204.472656 606.769531 205.5625 609.074219 C 206.652344 611.382812 207.800781 613.660156 209.003906 615.910156 C 210.207031 618.160156 211.464844 620.382812 212.777344 622.570312 C 214.089844 624.757812 215.453125 626.914062 216.871094 629.035156 C 218.289062 631.15625 219.757812 633.242188 221.277344 635.292969 C 222.796875 637.34375 224.367188 639.355469 225.984375 641.328125 C 227.605469 643.300781 229.269531 645.230469 230.984375 647.121094 C 232.699219 649.011719 234.457031 650.859375 236.261719 652.664062 C 238.066406 654.46875 239.914062 656.230469 241.804688 657.941406 C 243.695312 659.65625 245.628906 661.324219 247.601562 662.941406 C 249.574219 664.558594 251.585938 666.128906 253.632812 667.648438 C 255.683594 669.171875 257.769531 670.640625 259.890625 672.054688 C 262.011719 673.472656 264.167969 674.839844 266.355469 676.152344 C 268.546875 677.464844 270.765625 678.71875 273.015625 679.921875 C 275.265625 681.125 277.546875 682.273438 279.851562 683.363281 C 282.160156 684.457031 284.492188 685.488281 286.847656 686.464844 C 289.207031 687.441406 291.585938 688.359375 293.988281 689.21875 C 296.394531 690.082031 298.816406 690.878906 301.257812 691.621094 C 303.699219 692.363281 306.15625 693.042969 308.632812 693.664062 C 311.109375 694.28125 313.597656 694.839844 316.101562 695.339844 C 318.601562 695.835938 321.117188 696.273438 323.640625 696.648438 C 326.164062 697.023438 328.699219 697.335938 331.238281 697.585938 C 333.777344 697.835938 336.320312 698.023438 338.871094 698.148438 C 341.417969 698.273438 343.96875 698.335938 346.519531 698.335938 L 358.019531 698.335938 L 235.226562 575.738281 C 234.773438 575.28125 234.34375 574.808594 233.9375 574.3125 C 233.53125 573.816406 233.148438 573.304688 232.792969 572.769531 C 232.4375 572.238281 232.109375 571.6875 231.804688 571.125 C 231.503906 570.558594 231.230469 569.980469 230.984375 569.386719 C 230.738281 568.796875 230.523438 568.191406 230.335938 567.578125 C 230.152344 566.964844 229.996094 566.34375 229.871094 565.714844 C 229.746094 565.085938 229.652344 564.453125 229.589844 563.816406 C 229.527344 563.179688 229.496094 562.539062 229.496094 561.898438 C 229.496094 561.257812 229.527344 560.617188 229.589844 559.980469 C 229.652344 559.339844 229.746094 558.707031 229.871094 558.078125 C 229.996094 557.449219 230.152344 556.828125 230.335938 556.214844 C 230.523438 555.601562 230.738281 555 230.984375 554.410156 C 231.230469 553.816406 231.503906 553.238281 231.804688 552.671875 C 232.109375 552.105469 232.4375 551.558594 232.792969 551.023438 C 233.148438 550.492188 233.53125 549.976562 233.9375 549.480469 C 234.34375 548.988281 234.773438 548.511719 235.226562 548.058594 C 235.679688 547.605469 236.152344 547.175781 236.648438 546.769531 C 237.144531 546.363281 237.660156 545.980469 238.191406 545.625 C 238.726562 545.269531 239.273438 544.941406 239.839844 544.636719 C 240.40625 544.335938 240.984375 544.0625 241.574219 543.816406 C 242.167969 543.570312 242.769531 543.355469 243.382812 543.167969 C 243.996094 542.984375 244.617188 542.828125 245.246094 542.703125 C 245.875 542.578125 246.507812 542.484375 247.148438 542.421875 C 247.785156 542.359375 248.425781 542.328125 249.066406 542.328125 C 249.707031 542.328125 250.34375 542.359375 250.984375 542.421875 C 251.621094 542.484375 252.253906 542.578125 252.882812 542.703125 C 253.511719 542.828125 254.132812 542.984375 254.746094 543.167969 C 255.359375 543.355469 255.960938 543.570312 256.554688 543.816406 C 257.148438 544.0625 257.726562 544.335938 258.289062 544.636719 C 258.855469 544.941406 259.40625 545.269531 259.9375 545.625 C 260.472656 545.980469 260.984375 546.363281 261.480469 546.769531 C 261.976562 547.175781 262.449219 547.605469 262.902344 548.058594 L 385.503906 670.851562 Z M 502.449219 480.621094 L 502.449219 464.441406 C 502.449219 462.847656 502.410156 461.253906 502.332031 459.660156 C 502.253906 458.066406 502.136719 456.476562 501.980469 454.890625 C 501.824219 453.300781 501.628906 451.71875 501.394531 450.140625 C 501.160156 448.566406 500.886719 446.992188 500.578125 445.429688 C 500.265625 443.863281 499.917969 442.308594 499.527344 440.761719 C 499.140625 439.214844 498.714844 437.679688 498.253906 436.152344 C 497.789062 434.625 497.289062 433.113281 496.753906 431.609375 C 496.214844 430.109375 495.640625 428.621094 495.03125 427.148438 C 494.421875 425.675781 493.773438 424.214844 493.09375 422.773438 C 492.410156 421.332031 491.695312 419.910156 490.941406 418.5 C 490.191406 417.09375 489.40625 415.707031 488.585938 414.339844 C 487.765625 412.972656 486.910156 411.625 486.027344 410.296875 C 485.140625 408.972656 484.222656 407.667969 483.269531 406.386719 C 482.320312 405.105469 481.339844 403.851562 480.328125 402.617188 C 479.316406 401.382812 478.273438 400.175781 477.203125 398.996094 C 476.132812 397.8125 475.035156 396.660156 473.90625 395.53125 C 472.777344 394.402344 471.625 393.304688 470.441406 392.230469 C 469.257812 391.160156 468.050781 390.121094 466.820312 389.109375 C 465.585938 388.097656 464.328125 387.113281 463.046875 386.164062 C 461.765625 385.214844 460.464844 384.296875 459.136719 383.410156 C 457.8125 382.523438 456.464844 381.671875 455.097656 380.851562 C 453.726562 380.03125 452.339844 379.246094 450.933594 378.492188 C 449.527344 377.742188 448.105469 377.023438 446.660156 376.34375 C 445.21875 375.660156 443.761719 375.015625 442.289062 374.40625 C 440.816406 373.792969 439.328125 373.21875 437.824219 372.683594 C 436.324219 372.144531 434.808594 371.644531 433.285156 371.183594 C 431.757812 370.71875 430.222656 370.292969 428.675781 369.90625 C 427.125 369.519531 425.570312 369.171875 424.007812 368.859375 C 422.441406 368.546875 420.871094 368.277344 419.292969 368.042969 C 417.714844 367.808594 416.132812 367.613281 414.546875 367.457031 C 412.960938 367.300781 411.367188 367.183594 409.777344 367.105469 C 408.183594 367.027344 406.589844 366.988281 404.996094 366.988281 C 403.398438 366.988281 401.804688 367.027344 400.210938 367.105469 C 398.621094 367.183594 397.027344 367.300781 395.441406 367.457031 C 393.855469 367.613281 392.273438 367.808594 390.695312 368.042969 C 389.117188 368.273438 387.546875 368.546875 385.980469 368.859375 C 384.417969 369.171875 382.863281 369.519531 381.3125 369.90625 C 379.765625 370.292969 378.230469 370.71875 376.703125 371.183594 C 375.179688 371.644531 373.664062 372.144531 372.164062 372.683594 C 370.660156 373.21875 369.171875 373.792969 367.699219 374.40625 C 366.226562 375.015625 364.769531 375.660156 363.328125 376.34375 C 361.882812 377.023438 360.460938 377.742188 359.054688 378.492188 C 357.648438 379.246094 356.261719 380.03125 354.890625 380.851562 C 353.523438 381.671875 352.175781 382.523438 350.851562 383.410156 C 349.523438 384.296875 348.222656 385.214844 346.941406 386.164062 C 345.660156 387.113281 344.402344 388.097656 343.167969 389.109375 C 341.9375 390.121094 340.730469 391.160156 339.546875 392.230469 C 338.363281 393.304688 337.210938 394.402344 336.082031 395.53125 C 334.953125 396.660156 333.855469 397.8125 332.785156 398.996094 C 331.714844 400.175781 330.671875 401.382812 329.660156 402.617188 C 328.648438 403.851562 327.667969 405.105469 326.71875 406.386719 C 325.765625 407.667969 324.847656 408.972656 323.960938 410.296875 C 323.078125 411.625 322.222656 412.972656 321.402344 414.339844 C 320.582031 415.707031 319.796875 417.09375 319.046875 418.5 C 318.292969 419.910156 317.578125 421.332031 316.894531 422.773438 C 316.214844 424.214844 315.566406 425.675781 314.957031 427.148438 C 314.347656 428.621094 313.773438 430.109375 313.234375 431.609375 C 312.699219 433.113281 312.199219 434.625 311.734375 436.152344 C 311.273438 437.679688 310.847656 439.214844 310.460938 440.761719 C 310.070312 442.308594 309.722656 443.863281 309.410156 445.429688 C 309.101562 446.992188 308.828125 448.566406 308.59375 450.140625 C 308.359375 451.71875 308.164062 453.300781 308.007812 454.890625 C 307.851562 456.476562 307.734375 458.066406 307.65625 459.660156 C 307.578125 461.253906 307.539062 462.847656 307.539062 464.441406 L 307.539062 480.621094 C 318.683594 485.542969 329.285156 491.445312 339.34375 498.328125 C 349.402344 505.207031 358.746094 512.949219 367.375 521.550781 C 375.09375 529.226562 382.113281 537.5 388.425781 546.363281 C 394.742188 555.230469 400.265625 564.566406 404.996094 574.371094 C 409.722656 564.566406 415.246094 555.230469 421.5625 546.363281 C 427.875 537.5 434.894531 529.226562 442.613281 521.550781 C 451.242188 512.949219 460.585938 505.207031 470.644531 498.328125 C 480.703125 491.445312 491.304688 485.542969 502.449219 480.621094 Z M 385.503906 464.441406 L 424.484375 464.441406 C 425.125 464.441406 425.761719 464.410156 426.394531 464.347656 C 427.03125 464.285156 427.660156 464.191406 428.289062 464.066406 C 428.914062 463.941406 429.53125 463.789062 430.144531 463.601562 C 430.753906 463.417969 431.355469 463.203125 431.945312 462.957031 C 432.535156 462.714844 433.109375 462.441406 433.671875 462.140625 C 434.234375 461.839844 434.78125 461.511719 435.3125 461.15625 C 435.84375 460.800781 436.355469 460.421875 436.851562 460.019531 C 437.34375 459.613281 437.816406 459.183594 438.269531 458.734375 C 438.71875 458.28125 439.148438 457.808594 439.550781 457.316406 C 439.957031 456.824219 440.335938 456.308594 440.691406 455.78125 C 441.046875 455.25 441.375 454.703125 441.675781 454.140625 C 441.976562 453.574219 442.25 453 442.492188 452.410156 C 442.738281 451.820312 442.953125 451.21875 443.136719 450.609375 C 443.324219 450 443.476562 449.378906 443.601562 448.753906 C 443.726562 448.128906 443.820312 447.496094 443.882812 446.863281 C 443.945312 446.226562 443.976562 445.589844 443.976562 444.949219 C 443.976562 444.3125 443.945312 443.675781 443.882812 443.039062 C 443.820312 442.40625 443.726562 441.773438 443.601562 441.148438 C 443.476562 440.523438 443.324219 439.902344 443.136719 439.292969 C 442.953125 438.683594 442.738281 438.082031 442.492188 437.492188 C 442.25 436.902344 441.976562 436.324219 441.675781 435.761719 C 441.375 435.199219 441.046875 434.652344 440.691406 434.121094 C 440.335938 433.589844 439.957031 433.078125 439.550781 432.585938 C 439.148438 432.09375 438.71875 431.621094 438.269531 431.167969 C 437.816406 430.71875 437.34375 430.289062 436.851562 429.882812 C 436.355469 429.480469 435.84375 429.097656 435.3125 428.746094 C 434.78125 428.390625 434.234375 428.0625 433.671875 427.761719 C 433.109375 427.460938 432.535156 427.1875 431.945312 426.945312 C 431.355469 426.699219 430.753906 426.484375 430.144531 426.300781 C 429.53125 426.113281 428.914062 425.957031 428.289062 425.835938 C 427.660156 425.710938 427.03125 425.617188 426.394531 425.554688 C 425.761719 425.492188 425.125 425.460938 424.484375 425.460938 L 385.503906 425.460938 C 384.863281 425.460938 384.226562 425.492188 383.59375 425.554688 C 382.957031 425.617188 382.328125 425.710938 381.699219 425.835938 C 381.074219 425.957031 380.457031 426.113281 379.84375 426.300781 C 379.234375 426.484375 378.632812 426.699219 378.042969 426.945312 C 377.453125 427.1875 376.878906 427.460938 376.316406 427.761719 C 375.753906 428.0625 375.207031 428.390625 374.675781 428.746094 C 374.144531 429.097656 373.632812 429.480469 373.136719 429.882812 C 372.644531 430.289062 372.171875 430.71875 371.722656 431.167969 C 371.269531 431.621094 370.839844 432.09375 370.4375 432.585938 C 370.03125 433.078125 369.652344 433.589844 369.296875 434.121094 C 368.941406 434.652344 368.613281 435.199219 368.3125 435.761719 C 368.011719 436.324219 367.738281 436.902344 367.496094 437.492188 C 367.25 438.082031 367.035156 438.683594 366.851562 439.292969 C 366.664062 439.902344 366.511719 440.523438 366.386719 441.148438 C 366.261719 441.773438 366.167969 442.40625 366.105469 443.039062 C 366.042969 443.675781 366.011719 444.3125 366.011719 444.949219 C 366.011719 445.589844 366.042969 446.226562 366.105469 446.863281 C 366.167969 447.496094 366.261719 448.128906 366.386719 448.753906 C 366.511719 449.378906 366.664062 450 366.851562 450.609375 C 367.035156 451.21875 367.25 451.820312 367.496094 452.410156 C 367.738281 453 368.011719 453.574219 368.3125 454.140625 C 368.613281 454.703125 368.941406 455.25 369.296875 455.78125 C 369.652344 456.308594 370.03125 456.824219 370.4375 457.316406 C 370.839844 457.808594 371.269531 458.28125 371.722656 458.734375 C 372.171875 459.183594 372.644531 459.613281 373.136719 460.019531 C 373.632812 460.421875 374.144531 460.800781 374.675781 461.15625 C 375.207031 461.511719 375.753906 461.839844 376.316406 462.140625 C 376.878906 462.441406 377.453125 462.714844 378.042969 462.957031 C 378.632812 463.203125 379.234375 463.417969 379.84375 463.601562 C 380.457031 463.789062 381.074219 463.941406 381.699219 464.066406 C 382.328125 464.191406 382.957031 464.285156 383.59375 464.347656 C 384.226562 464.410156 384.863281 464.441406 385.503906 464.441406 Z M 736.34375 405.96875 C 738.894531 405.882812 741.332031 405.3125 743.660156 404.269531 C 745.988281 403.222656 748.03125 401.773438 749.792969 399.925781 C 750.757812 398.953125 751.621094 397.890625 752.375 396.746094 C 753.132812 395.601562 753.773438 394.394531 754.289062 393.121094 C 754.808594 391.851562 755.199219 390.542969 755.457031 389.195312 C 755.71875 387.847656 755.84375 386.484375 755.835938 385.113281 C 755.867188 383.648438 755.734375 382.199219 755.4375 380.765625 C 755.144531 379.328125 754.691406 377.945312 754.085938 376.613281 C 753.476562 375.28125 752.726562 374.03125 751.839844 372.867188 C 750.949219 371.703125 749.941406 370.652344 748.816406 369.714844 L 404.996094 61.753906 L 61.171875 369.519531 C 60.046875 370.457031 59.039062 371.507812 58.148438 372.671875 C 57.261719 373.835938 56.511719 375.085938 55.90625 376.417969 C 55.296875 377.75 54.84375 379.136719 54.550781 380.570312 C 54.253906 382.003906 54.121094 383.453125 54.152344 384.917969 C 54.144531 386.289062 54.269531 387.652344 54.53125 389 C 54.789062 390.347656 55.179688 391.65625 55.699219 392.925781 C 56.21875 394.199219 56.855469 395.40625 57.613281 396.550781 C 58.367188 397.695312 59.230469 398.757812 60.195312 399.730469 C 61.941406 401.617188 63.976562 403.097656 66.304688 404.179688 C 68.632812 405.257812 71.082031 405.855469 73.644531 405.96875 C 76.835938 406.0625 79.953125 405.625 82.996094 404.65625 C 86.039062 403.6875 88.832031 402.238281 91.382812 400.316406 L 391.738281 118.863281 C 392.632812 118.035156 393.59375 117.296875 394.628906 116.648438 C 395.660156 116.003906 396.742188 115.457031 397.875 115.011719 C 399.007812 114.566406 400.175781 114.230469 401.371094 114.003906 C 402.570312 113.777344 403.777344 113.664062 404.996094 113.664062 C 406.210938 113.664062 407.417969 113.777344 408.617188 114.003906 C 409.8125 114.230469 410.980469 114.566406 412.113281 115.011719 C 413.246094 115.457031 414.328125 116.003906 415.359375 116.648438 C 416.394531 117.296875 417.355469 118.035156 418.25 118.863281 L 718.605469 400.316406 C 721.15625 402.238281 723.949219 403.6875 726.992188 404.65625 C 730.035156 405.625 733.152344 406.0625 736.34375 405.96875 Z M 736.34375 405.96875 " fill-opacity="1" fill-rule="evenodd"/></g><g clip-path="url(#77861a8bed)"><path fill="#ffffff" d="M 377.21875 334.375 L 429.421875 334.375 L 429.421875 353.121094 L 377.21875 353.121094 Z M 377.21875 334.375 " fill-opacity="1" fill-rule="nonzero"/></g></svg>